<?xml version="1.0" standalone="no"?>
<!DOCTYPE svg PUBLIC "-//W3C//DTD SVG 20010904//EN"
 "http://www.w3.org/TR/2001/REC-SVG-20010904/DTD/svg10.dtd">
<svg version="1.0" xmlns="http://www.w3.org/2000/svg"
 width="360.000000pt" height="247.000000pt" viewBox="0 0 360.000000 247.000000"
 preserveAspectRatio="xMidYMid meet">

<g transform="translate(0.000000,247.000000) scale(0.100000,-0.100000)"
fill="#000000" stroke="none">
<path d="M0 2269 c0 -170 2 -199 15 -199 12 0 15 13 15 59 0 39 5 63 15 71 28
23 50 -21 23 -48 -8 -8 -9 -12 -1 -12 6 0 19 -3 28 -7 15 -5 16 -1 11 24 -8
36 12 58 44 48 31 -10 76 3 61 18 -31 31 9 84 52 68 14 -5 27 -8 30 -5 2 2 10
-3 17 -11 11 -13 10 -22 -8 -54 -13 -23 -19 -47 -16 -62 28 -120 27 -133 -9
-120 -16 6 -29 4 -42 -6 -16 -11 -42 -13 -127 -9 l-108 6 0 -306 0 -306 62 6
c35 3 149 11 253 16 224 13 245 16 245 38 0 14 2 15 9 3 7 -12 34 -14 128 -12
74 2 120 7 125 14 8 13 38 -1 84 -39 27 -22 28 -25 12 -38 -30 -23 -20 -27 47
-20 42 4 65 3 65 -4 0 -5 7 -13 16 -16 14 -5 15 -4 4 9 -16 19 -6 23 73 29 42
3 61 1 72 -10 14 -14 19 -11 16 9 -1 5 4 7 11 4 7 -2 20 -1 29 4 11 6 21 3 29
-7 14 -16 69 -15 248 6 94 10 176 16 404 26 138 7 148 6 188 -15 44 -23 80
-20 80 6 0 12 3 13 13 5 14 -12 23 -10 197 41 47 13 98 28 115 32 29 6 29 6
11 -14 -11 -12 -28 -21 -39 -21 -26 0 -87 -22 -87 -31 0 -4 -9 -5 -20 -2 -11
3 -20 1 -20 -5 0 -13 -66 -33 -84 -26 -7 3 -18 -2 -25 -10 -7 -8 -18 -13 -26
-10 -7 3 -16 1 -20 -5 -3 -6 -23 -11 -45 -11 -23 0 -40 -5 -43 -14 -4 -9 -18
-13 -36 -12 -22 1 -31 -2 -31 -13 0 -8 -3 -11 -7 -8 -3 4 -12 2 -18 -3 -9 -7
-21 -7 -39 0 -23 9 -28 7 -36 -14 -10 -28 -28 -37 -52 -24 -14 7 -18 4 -18
-12 0 -17 -4 -20 -19 -15 -11 3 -36 -3 -58 -15 -21 -11 -52 -20 -70 -20 -18 0
-33 -5 -33 -11 0 -7 -10 -9 -24 -7 -15 3 -27 0 -30 -8 -4 -10 -12 -11 -31 -4
-23 9 -25 8 -15 -10 7 -12 7 -21 0 -25 -5 -3 -10 -1 -10 4 0 6 -13 11 -30 11
-24 0 -30 -4 -30 -21 0 -19 -4 -21 -30 -15 -18 3 -30 1 -30 -5 0 -6 -9 -8 -20
-4 -16 5 -20 2 -20 -14 0 -21 -14 -28 -24 -12 -3 5 -17 11 -30 13 -17 4 -23 1
-19 -9 3 -7 -2 -13 -11 -13 -11 0 -16 -9 -16 -30 0 -19 5 -30 14 -30 23 0 28
18 9 29 -10 6 -13 11 -7 11 5 0 16 -6 22 -12 10 -10 14 -10 21 0 4 6 26 13 49
14 23 1 42 6 42 13 0 6 10 11 22 12 21 2 116 36 150 54 10 5 28 9 42 9 13 0
28 6 34 13 6 7 25 14 43 15 17 1 42 11 56 21 13 11 42 22 65 26 23 4 57 16 75
26 18 10 33 17 33 15 0 -7 71 13 106 30 18 7 55 20 83 27 29 7 52 17 51 22 0
5 25 14 57 21 32 6 76 20 98 29 113 50 161 64 231 71 57 6 66 4 125 -28 140
-77 260 -104 437 -100 88 3 101 -6 65 -43 l-28 -29 27 17 c43 27 44 20 2 -13
-22 -17 -47 -38 -58 -46 -10 -9 -27 -14 -37 -11 -10 3 -22 0 -26 -5 -4 -7 -1
-8 7 -3 8 5 11 3 8 -6 -6 -19 -68 -51 -85 -45 -9 4 -11 2 -7 -6 5 -8 2 -9 -9
-5 -9 3 -19 1 -23 -5 -5 -7 -2 -8 6 -3 8 5 11 3 8 -6 -3 -8 -16 -15 -29 -15
-37 -2 -58 -14 -52 -30 3 -8 0 -14 -6 -14 -6 0 -11 5 -11 10 0 6 -8 5 -19 -2
-11 -7 -17 -16 -14 -22 4 -5 -1 -7 -11 -3 -11 5 -25 -2 -40 -18 -13 -14 -31
-25 -40 -25 -9 0 -16 -4 -16 -9 0 -6 -15 -11 -32 -13 -20 -2 -32 -8 -30 -15 1
-7 -7 -13 -18 -13 -27 0 -130 -53 -153 -78 -11 -11 -25 -18 -33 -15 -7 3 -27
-5 -43 -16 -16 -12 -34 -21 -41 -21 -7 0 -24 -6 -38 -14 -15 -8 -51 -24 -81
-36 -30 -12 -61 -28 -68 -36 -8 -8 -25 -14 -39 -14 -13 0 -24 -4 -24 -8 0 -5
-23 -14 -51 -21 -28 -7 -53 -20 -56 -27 -3 -9 -13 -12 -25 -8 -13 4 -26 -2
-40 -18 -13 -15 -22 -19 -25 -11 -3 9 -14 7 -38 -7 -18 -10 -50 -22 -69 -26
-20 -3 -48 -15 -62 -26 -15 -12 -34 -18 -49 -16 -13 3 -22 1 -19 -3 3 -5 -5
-9 -18 -9 -13 0 -39 -8 -58 -19 -19 -10 -55 -22 -79 -26 -25 -4 -51 -14 -59
-21 -7 -8 -29 -14 -48 -14 -20 0 -33 -4 -29 -9 3 -6 -11 -9 -32 -8 -22 0 -58
-9 -85 -22 -28 -13 -56 -20 -67 -16 -11 3 -22 1 -26 -5 -3 -5 -20 -10 -37 -10
-18 0 -37 -8 -44 -18 -11 -13 -15 -14 -22 -4 -7 10 -14 11 -36 1 -19 -9 -30
-9 -37 -2 -8 8 -21 7 -45 -3 -18 -8 -66 -19 -106 -24 -40 -6 -90 -15 -111 -21
-33 -9 -37 -12 -26 -25 10 -12 9 -18 -4 -32 -16 -15 -17 -14 -17 11 0 27 -13
36 -25 17 -12 -19 -54 -10 -87 20 -20 19 -43 30 -61 30 -22 0 -27 4 -23 18 4
11 -7 30 -29 54 -21 22 -36 48 -37 65 -1 16 -14 39 -30 54 -15 14 -28 31 -28
37 0 7 -7 12 -16 12 -13 0 -14 3 -5 13 6 8 8 17 4 20 -3 4 -1 7 5 7 6 0 13 14
17 30 4 17 11 27 16 24 6 -3 16 0 24 6 8 6 19 9 25 5 6 -3 27 12 46 34 30 33
40 38 55 31 12 -7 20 -7 24 0 3 5 15 10 25 10 10 0 25 6 32 13 7 7 26 14 43
15 16 1 34 7 39 12 6 6 18 10 27 10 9 0 22 7 29 15 7 9 21 13 31 10 11 -4 26
2 38 14 12 12 25 21 30 21 5 0 11 9 14 21 3 12 10 18 16 15 6 -4 8 -14 5 -24
-4 -10 -2 -13 3 -7 12 15 51 35 67 35 7 0 13 8 12 18 -1 13 7 17 29 18 17 0
35 3 41 6 5 4 26 9 46 13 36 7 49 21 57 62 0 3 10 -2 21 -12 24 -21 42 -10 46
27 2 13 0 17 -2 11 -9 -20 -24 -15 -24 7 0 11 -4 20 -10 20 -5 0 -10 -8 -10
-17 0 -13 -9 -18 -30 -19 -18 -1 -30 4 -30 11 0 17 32 28 40 15 5 -8 9 -7 13
4 3 8 25 20 49 27 24 6 57 17 73 24 17 7 59 23 95 36 46 17 59 25 43 27 -13 2
-23 8 -23 14 0 9 25 7 62 -7 7 -3 19 -1 27 4 12 8 12 12 2 25 -16 19 -1 22 18
4 11 -10 14 -10 18 0 3 6 13 12 23 12 13 0 17 5 13 20 -4 14 0 20 10 20 10 0
13 -6 10 -21 -5 -19 -3 -20 33 -14 52 9 94 25 94 37 0 5 -4 7 -9 4 -5 -3 -31
-2 -57 3 -57 11 -104 4 -104 -14 0 -19 -38 -25 -55 -8 -16 16 -35 10 -35 -12
0 -7 -11 -16 -25 -19 -29 -7 -48 0 -40 15 4 5 1 9 -5 9 -17 0 -23 -29 -10 -45
10 -12 9 -15 -4 -15 -9 0 -16 -8 -16 -20 0 -13 -7 -20 -19 -20 -14 0 -18 5
-14 20 6 22 -22 29 -30 8 -4 -10 -7 -10 -18 0 -11 10 -10 12 3 12 11 0 15 8
14 25 -1 28 -26 34 -46 10 -7 -8 -19 -15 -26 -15 -8 0 -14 -9 -14 -19 0 -23
-16 -36 -25 -21 -4 6 -16 8 -27 4 -18 -5 -20 -3 -15 15 3 11 2 21 -3 21 -4 0
-11 -11 -14 -25 -6 -25 -18 -30 -67 -26 -14 1 -32 -5 -39 -14 -7 -8 -24 -15
-39 -15 -20 0 -23 2 -11 10 22 14 4 12 -35 -4 -45 -19 -45 -30 0 -23 19 3 35
2 35 -4 0 -5 -6 -9 -12 -9 -90 -3 -226 -12 -237 -16 -8 -3 -55 -7 -105 -10
-50 -3 -97 -7 -103 -9 -7 -3 -20 -2 -28 1 -11 5 -7 12 18 29 22 15 36 19 45
12 7 -5 15 -7 18 -4 9 8 -15 47 -29 47 -17 -1 -47 -25 -47 -39 0 -6 -4 -11
-10 -11 -5 0 -10 10 -10 21 0 19 -4 21 -37 14 -21 -4 -44 -11 -50 -17 -7 -6
-21 -7 -30 -4 -12 5 -14 4 -8 -2 6 -6 24 -13 41 -16 24 -5 33 -3 37 8 8 20 27
21 27 1 0 -26 -60 -55 -107 -52 -24 2 -43 1 -43 -3 0 -5 -33 -5 -137 -1 -30 2
-10 17 22 18 36 1 65 17 65 35 0 16 -192 -23 -198 -40 -1 -4 -34 -6 -72 -4
l-70 4 0 -546 0 -546 1605 0 c883 0 1605 2 1605 4 0 2 -16 23 -35 46 -19 23
-35 46 -35 50 0 13 30 40 43 40 7 0 23 3 37 7 l25 6 -25 -27 c-21 -23 -23 -29
-10 -36 8 -5 33 -20 55 -33 24 -14 39 -30 39 -40 -2 -15 14 -17 147 -17 l149
0 0 59 0 58 -40 7 c-71 11 -90 25 -90 65 0 75 63 112 106 62 l23 -26 1 590 0
590 -275 0 c-151 0 -275 -3 -275 -7 0 -5 -19 -8 -43 -8 -30 0 -48 6 -60 20
-13 15 -29 20 -67 20 -63 0 -98 17 -140 69 -43 52 -63 56 -122 24 -26 -14 -49
-24 -51 -22 -1 2 -7 18 -14 36 -19 54 4 72 144 113 29 9 87 11 187 8 138 -5
146 -4 146 14 0 36 38 41 207 29 222 -16 282 -34 233 -71 -14 -10 -22 -21 -19
-24 3 -4 38 -15 77 -25 l72 -19 0 454 0 454 -631 0 -630 0 7 -22 c3 -13 20
-46 35 -75 16 -29 29 -58 29 -67 0 -8 11 -36 25 -63 13 -26 26 -64 29 -83 2
-19 7 -42 10 -51 9 -22 -7 -27 -128 -41 -55 -6 -107 -15 -114 -21 -8 -7 -10
-24 -6 -56 3 -26 -1 -75 -9 -113 -8 -37 -12 -70 -9 -73 3 -3 21 -5 40 -5 53 0
163 -21 195 -37 15 -7 27 -22 27 -32 0 -10 7 -24 15 -31 17 -14 21 -105 5
-115 -6 -4 -10 5 -10 20 0 14 -7 40 -16 56 l-15 30 -67 -7 c-37 -3 -70 -8 -74
-11 -14 -8 -8 -22 12 -28 32 -10 23 -24 -17 -27 -33 -3 -39 -7 -43 -33 -6 -34
-38 -54 -90 -56 l-35 -1 30 -13 30 -14 -38 -1 c-22 0 -82 -9 -135 -19 -54 -11
-169 -25 -257 -31 -88 -6 -203 -17 -255 -23 -52 -7 -108 -10 -125 -7 l-30 5
53 33 c60 37 68 38 80 16 8 -15 15 -13 55 17 26 19 46 37 47 41 0 3 -26 4 -57
1 -50 -4 -62 -2 -86 17 -16 12 -26 28 -23 35 2 7 -3 20 -13 29 -22 20 -31 20
-31 1 0 -8 -12 -17 -27 -21 -16 -4 -55 -15 -88 -24 -50 -15 -95 -19 -147 -11
-4 1 -5 8 -2 16 4 10 11 12 22 7 26 -13 123 -2 129 14 3 8 13 14 22 14 10 0
27 14 39 30 26 35 44 37 135 16 34 -8 87 -18 117 -23 50 -7 55 -10 54 -33 -1
-14 -4 -33 -9 -43 -7 -16 -2 -18 61 -15 l69 3 7 70 c4 39 10 96 14 129 4 44 3
61 -7 67 -27 17 16 42 78 46 32 2 73 9 92 15 l34 11 -28 14 c-18 10 -61 16
-119 17 -78 1 -91 3 -94 19 -3 13 3 17 28 17 17 0 40 9 52 20 12 11 28 20 35
20 8 0 27 10 43 22 25 18 33 20 55 10 22 -10 29 -9 43 4 15 16 17 15 22 -7 5
-21 12 -24 59 -27 l54 -3 -7 33 c-3 18 -13 36 -22 41 -19 11 -17 94 3 101 7 3
13 12 13 20 0 46 46 86 65 56 19 -30 51 34 60 119 l3 39 -51 7 c-69 10 -139
33 -154 52 -7 9 -19 13 -28 10 -17 -7 -20 -48 -4 -64 6 -6 9 -21 7 -34 -2 -19
-10 -25 -38 -27 -20 -2 -48 3 -66 13 -23 12 -36 14 -57 6 -24 -9 -27 -16 -27
-55 0 -60 -17 -69 -81 -45 -71 27 -207 26 -242 -1 -22 -17 -26 -18 -31 -4 -3
9 -4 19 -2 23 7 11 36 152 36 174 0 15 -12 17 -103 17 -106 0 -159 -14 -170
-44 -7 -18 1 -26 29 -26 28 0 37 -13 29 -40 -10 -31 -52 -37 -79 -11 -12 11
-29 21 -37 21 -19 0 -42 37 -28 46 6 3 8 13 4 22 -3 8 0 19 7 24 7 4 -66 7
-162 7 -96 0 -169 -3 -162 -6 19 -8 14 -23 -8 -23 -11 0 -20 7 -20 15 0 13
-20 15 -120 15 -73 0 -120 -4 -120 -10 0 -5 -12 -10 -27 -10 -53 0 -74 -11
-80 -42 -3 -16 -12 -32 -19 -35 -20 -8 -17 -24 4 -21 13 2 18 -5 20 -30 3 -30
1 -33 -17 -27 -18 5 -21 2 -21 -24 0 -30 21 -43 35 -21 7 11 33 3 56 -17 14
-11 18 -11 29 2 20 25 37 17 44 -19 9 -46 20 -52 103 -59 l73 -6 6 40 c8 51
30 61 56 26 24 -33 32 -34 45 -4 10 21 10 21 17 -10 8 -37 13 -39 35 -19 9 7
41 17 72 20 45 6 60 4 73 -9 23 -23 20 -52 -9 -79 -14 -13 -25 -31 -25 -40 0
-18 -44 -23 -55 -6 -4 6 -16 5 -33 -4 -15 -7 -32 -11 -39 -9 -7 2 -21 -1 -32
-7 -19 -10 -21 -8 -21 23 0 34 0 34 -55 41 -31 3 -67 3 -81 0 -17 -4 -31 -1
-45 12 -23 21 -106 28 -127 11 -8 -6 -11 -21 -7 -38 6 -26 4 -28 -31 -35 -22
-4 -44 -2 -55 4 -14 9 -20 8 -27 -4 -15 -27 -54 -13 -64 21 -16 61 -18 112 -6
173 11 58 10 65 -5 73 -9 6 -17 20 -18 32 -1 20 -2 20 -8 -3 -4 -14 -13 -25
-21 -25 -11 0 -15 15 -17 63 -2 55 0 62 18 62 12 0 19 -7 19 -20 0 -11 6 -20
14 -20 9 0 13 10 12 25 -1 23 -5 25 -43 25 -40 0 -43 -2 -43 -27 0 -43 -13
-57 -39 -44 -14 8 -21 21 -21 41 l0 28 -100 0 -100 0 0 -199z m1970 -14 c0 -8
-9 -15 -19 -15 -24 0 -36 16 -19 23 24 10 38 7 38 -8z m30 -75 c0 -5 -15 -10
-34 -10 -19 0 -38 -4 -41 -10 -3 -5 -13 -10 -21 -10 -8 0 -14 5 -14 10 0 6 6
10 13 10 6 0 23 13 37 28 24 26 26 26 42 10 10 -10 18 -22 18 -28z m-291 25
c16 -16 -56 -39 -78 -25 -26 15 7 43 43 36 16 -4 32 -8 35 -11z m-169 -26 c0
-6 -4 -7 -10 -4 -5 3 -10 11 -10 16 0 6 5 7 10 4 6 -3 10 -11 10 -16z m1342
-34 c-3 -24 -8 -33 -14 -27 -11 11 -1 75 11 68 4 -3 5 -21 3 -41z m86 -10 c11
-29 10 -39 -3 -65 -16 -32 -26 -36 -54 -21 -24 13 -26 75 -4 101 26 30 47 25
61 -15z m142 4 c11 -19 13 -19 35 -5 14 9 34 16 47 16 21 0 21 -1 -7 -30 -32
-34 -79 -48 -134 -41 -21 2 -21 35 0 58 28 28 45 29 59 2z m-2337 -79 c17 0
23 -15 9 -24 -11 -6 -102 24 -102 35 0 4 8 12 18 18 13 7 22 5 38 -10 11 -10
28 -19 37 -19z m457 14 c19 5 66 6 103 2 58 -7 66 -10 56 -22 -10 -12 -8 -18
7 -29 16 -12 17 -16 5 -24 -17 -11 -61 6 -61 24 0 17 -50 26 -74 13 -12 -7
-26 -7 -41 0 -19 9 -24 6 -40 -20 -17 -29 -17 -32 -1 -43 18 -14 22 -35 6 -35
-6 0 -15 11 -20 25 -11 28 -41 33 -60 10 -19 -23 -67 -19 -80 6 -16 28 -4 36
20 14 16 -15 23 -16 33 -6 9 9 8 18 -5 41 -22 39 -8 48 64 40 29 -3 69 -1 88
4z m-705 -54 c3 -5 1 -10 -4 -10 -6 0 -11 5 -11 10 0 6 2 10 4 10 3 0 8 -4 11
-10z m1033 -7 c5 -18 -40 -16 -64 2 -18 14 -17 15 20 13 22 -2 41 -9 44 -15z
m122 -159 c0 -8 -4 -12 -10 -9 -5 3 -10 10 -10 16 0 5 5 9 10 9 6 0 10 -7 10
-16z m-975 -12 c0 -18 -20 -15 -23 4 -3 10 1 15 10 12 7 -3 13 -10 13 -16z
m577 -83 c17 -9 44 -76 34 -86 -9 -10 -34 16 -40 42 -4 16 -13 25 -26 25 -24
0 -26 -13 -5 -30 12 -10 13 -16 5 -24 -8 -8 -18 -4 -34 17 -12 15 -27 27 -34
27 -28 0 -112 -64 -112 -85 0 -7 9 -20 20 -30 15 -13 17 -22 9 -36 -7 -15 -21
-19 -59 -19 -51 0 -63 -13 -38 -38 6 -6 9 -14 6 -17 -9 -9 -190 25 -227 43
-33 16 -49 37 -38 49 6 6 14 7 195 43 61 12 112 26 112 31 0 10 52 59 63 59 5
0 22 11 39 25 25 21 36 24 71 19 23 -4 50 -11 59 -15z m937 -283 c9 -10 8 -15
-4 -20 -10 -4 -15 1 -15 14 0 24 4 25 19 6z m1141 -126 c0 -5 -5 -10 -11 -10
-5 0 -7 5 -4 10 3 6 8 10 11 10 2 0 4 -4 4 -10z m-1260 -40 c0 -5 -4 -10 -10
-10 -5 0 -10 5 -10 10 0 6 5 10 10 10 6 0 10 -4 10 -10z m-730 -65 c0 -8 -4
-15 -10 -15 -5 0 -10 7 -10 15 0 8 5 15 10 15 6 0 10 -7 10 -15z m15 -65 c4
-6 -9 -10 -32 -10 -28 0 -34 3 -23 10 20 13 47 13 55 0z m1915 0 c0 -5 -4 -10
-9 -10 -6 0 -13 5 -16 10 -3 6 1 10 9 10 9 0 16 -4 16 -10z m-2183 -43 c-11
-4 -25 -5 -31 -3 -6 3 -1 8 12 11 12 4 22 15 23 24 0 12 2 11 8 -4 6 -15 3
-22 -12 -28z m178 33 c3 -5 -1 -10 -10 -10 -9 0 -13 5 -10 10 3 6 8 10 10 10
2 0 7 -4 10 -10z m-45 -10 c0 -5 -16 -10 -35 -10 -19 0 -38 0 -42 -1 -4 0 -9
4 -11 10 -2 7 14 11 42 11 25 0 46 -4 46 -10z m1880 -72 c0 -5 -7 -8 -15 -8
-15 0 -20 21 -8 33 7 7 23 -11 23 -25z m410 12 c-8 -5 -22 -10 -30 -10 -13 0
-13 1 0 10 8 5 22 10 30 10 13 0 13 -1 0 -10z m-2345 -30 c3 -5 0 -10 -7 -10
-9 0 -10 -2 -1 -8 8 -5 3 -11 -13 -19 -20 -9 -24 -9 -24 4 0 14 -2 14 -19 -1
-11 -10 -26 -14 -37 -10 -15 5 -16 4 -4 -5 8 -5 11 -13 7 -17 -4 -4 -13 -2
-19 4 -7 7 -20 12 -31 12 -15 0 -17 -5 -12 -29 8 -35 -6 -41 -82 -36 -58 3
-58 3 -42 -28 l12 -22 -22 20 c-19 16 -24 17 -31 5 -7 -12 -11 -12 -27 2 -12
10 -25 13 -38 8 -19 -8 -19 -9 3 -9 12 -1 22 -6 22 -12 0 -5 -8 -9 -17 -8 -29
4 -103 -12 -98 -21 3 -5 1 -11 -5 -15 -5 -3 -10 1 -10 9 0 9 -9 16 -20 16 -11
0 -20 -4 -20 -10 0 -5 5 -10 12 -10 6 0 9 -3 6 -6 -3 -3 -30 -7 -59 -8 -30 -2
-67 -9 -84 -16 -16 -7 -41 -14 -55 -15 -14 -1 -41 -5 -60 -8 -33 -6 49 21 545
183 237 77 222 73 230 60z m2345 1 c0 -5 -7 -12 -16 -15 -8 -3 -13 -10 -10
-15 8 -12 -63 -71 -85 -71 -23 0 -30 11 -18 26 9 11 6 16 -12 22 -20 8 -18 10
19 16 23 3 51 15 62 26 20 20 60 27 60 11z m-315 -81 c8 -13 -5 -13 -25 0 -13
8 -13 10 2 10 9 0 20 -4 23 -10z m40 -10 c3 -5 -1 -10 -9 -10 -9 0 -16 5 -16
10 0 6 4 10 9 10 6 0 13 -4 16 -10z m-205 -62 c0 -13 -23 -5 -28 10 -2 7 2 10
12 6 9 -3 16 -11 16 -16z m-2392 -110 c-2 -6 -10 -14 -16 -16 -7 -2 -10 2 -6
12 7 18 28 22 22 4z m2002 -138 c0 -5 -8 -10 -17 -10 -15 0 -16 2 -3 10 19 12
20 12 20 0z m-95 -55 c-16 -14 -55 -37 -85 -52 -30 -16 -56 -31 -58 -35 -2 -5
-8 -8 -14 -8 -5 0 -24 -11 -42 -25 -18 -14 -36 -25 -40 -25 -8 0 -224 -106
-296 -145 -25 -13 -55 -25 -67 -25 -12 0 -27 -9 -33 -20 -6 -11 -16 -20 -23
-20 -7 0 -33 -9 -56 -21 -24 -11 -49 -18 -56 -15 -8 3 -19 -2 -25 -10 -7 -8
-29 -14 -50 -14 -27 0 -44 -7 -61 -25 -13 -13 -34 -25 -45 -25 -25 0 -40 -39
-21 -53 23 -15 -108 5 -133 21 -14 9 -28 16 -31 15 -4 -1 -5 7 -2 17 3 11 14
20 24 20 12 0 16 5 13 15 -8 19 10 19 30 0 8 -8 17 -11 20 -6 3 4 37 11 76 13
38 3 75 10 82 15 7 6 49 23 93 38 44 15 141 57 215 92 232 112 294 140 315
147 11 3 45 19 75 35 30 17 71 38 90 48 19 9 55 30 79 45 55 34 66 35 26 3z
m550 -25 c-3 -5 -11 -10 -16 -10 -6 0 -7 5 -4 10 3 6 11 10 16 10 6 0 7 -4 4
-10z m-2729 -79 c0 -21 -21 -18 -30 5 -3 9 1 14 12 14 11 0 18 -8 18 -19z
m215 -180 c13 -11 20 -23 16 -27 -9 -9 -59 18 -65 35 -6 18 24 13 49 -8z
m2863 -207 c9 -3 16 -12 16 -20 0 -21 -38 -17 -50 6 -11 21 1 27 34 14z"/>
<path d="M890 1580 c0 -13 20 -13 40 0 12 8 9 10 -12 10 -16 0 -28 -4 -28 -10z"/>
<path d="M848 1553 c7 -3 16 -2 19 1 4 3 -2 6 -13 5 -11 0 -14 -3 -6 -6z"/>
<path d="M950 970 c0 -5 5 -10 11 -10 5 0 7 5 4 10 -3 6 -8 10 -11 10 -2 0 -4
-4 -4 -10z"/>
<path d="M451 2202 c-7 -13 -6 -23 1 -30 27 -27 54 -3 36 31 -11 22 -25 22
-37 -1z"/>
<path d="M165 2150 c8 -13 35 -13 55 0 11 7 5 10 -23 10 -23 0 -36 -4 -32 -10z"/>
<path d="M2029 1933 c-22 -5 -32 -43 -14 -49 7 -3 26 -4 42 -2 20 2 29 9 31
26 2 12 -1 22 -6 22 -6 0 -16 2 -24 4 -7 2 -20 2 -29 -1z"/>
<path d="M1860 1750 c-11 -7 -9 -11 13 -19 35 -14 87 -14 87 -1 0 24 -70 39
-100 20z"/>
<path d="M2057 1753 c-13 -12 -7 -43 8 -43 9 0 15 9 15 25 0 24 -10 32 -23 18z"/>
<path d="M2995 1579 c-10 -15 3 -25 16 -12 7 7 7 13 1 17 -6 3 -14 1 -17 -5z"/>
<path d="M3065 1495 c-22 -19 -49 -35 -60 -35 -17 -1 -18 -2 -4 -10 20 -12
419 -26 419 -15 0 9 -38 45 -72 69 -25 18 -70 21 -97 6 -12 -6 -34 -4 -66 5
-67 21 -75 19 -120 -20z"/>
<path d="M730 1405 c-19 -8 -57 -20 -85 -28 -29 -9 -40 -15 -27 -16 26 -1 30
-16 5 -17 -10 -1 -31 -4 -48 -8 -16 -3 -82 -8 -145 -10 -63 -3 -105 -2 -92 0
26 6 29 20 5 33 -13 6 -32 2 -68 -16 -38 -18 -72 -25 -140 -29 -139 -8 -135
-6 -135 -64 l0 -51 27 20 c28 19 87 28 352 51 63 6 117 13 122 15 7 5 186 33
254 40 83 9 185 30 185 38 0 9 -57 5 -143 -12 -26 -4 -50 -5 -52 0 -5 8 25 21
41 18 24 -4 34 3 34 26 0 21 -5 25 -27 24 -16 0 -44 -6 -63 -14z m-33 -61
c-27 -15 -47 -12 -47 7 0 5 17 9 38 9 l37 -1 -28 -15z"/>
<path d="M965 1370 c-19 -8 -19 -9 3 -9 12 -1 24 -1 27 -1 9 0 7 14 -2 17 -4
1 -17 -2 -28 -7z"/>
<path d="M1108 1373 c7 -3 16 -2 19 1 4 3 -2 6 -13 5 -11 0 -14 -3 -6 -6z"/>
<path d="M1835 1310 c-3 -5 1 -10 9 -10 9 0 16 5 16 10 0 6 -4 10 -9 10 -6 0
-13 -4 -16 -10z"/>
<path d="M1117 1220 c-3 -11 -1 -20 4 -20 5 0 9 9 9 20 0 11 -2 20 -4 20 -2 0
-6 -9 -9 -20z"/>
<path d="M1140 1219 c0 -5 5 -7 10 -4 6 3 10 8 10 11 0 2 -4 4 -10 4 -5 0 -10
-5 -10 -11z"/>
<path d="M703 1202 c-16 -12 -15 -12 14 -7 26 4 31 2 27 -10 -4 -8 -13 -15
-21 -15 -8 0 -11 -5 -8 -11 4 -6 14 -7 24 -4 32 13 89 15 116 5 23 -9 28 -7
32 10 3 11 12 20 20 20 8 0 11 5 8 10 -5 8 -11 8 -20 0 -9 -8 -20 -7 -38 1
-22 10 -29 9 -44 -6 -17 -17 -18 -17 -24 6 l-6 24 -5 -25 c-5 -24 -6 -25 -13
-3 -8 24 -33 26 -62 5z"/>
<path d="M630 1199 c0 -6 9 -8 20 -4 15 5 18 3 14 -9 -4 -11 0 -16 11 -16 11
0 15 -5 11 -15 -3 -8 -1 -15 4 -15 14 0 12 32 -4 53 -14 19 -56 24 -56 6z"/>
<path d="M1080 1195 c0 -8 4 -15 10 -15 5 0 7 7 4 15 -4 8 -8 15 -10 15 -2 0
-4 -7 -4 -15z"/>
<path d="M968 1193 c7 -3 16 -2 19 1 4 3 -2 6 -13 5 -11 0 -14 -3 -6 -6z"/>
<path d="M925 1171 c-3 -5 -1 -12 5 -16 5 -3 10 1 10 9 0 18 -6 21 -15 7z"/>
<path d="M2353 1174 c-9 -4 -9 -11 -1 -29 8 -18 8 -28 0 -38 -9 -10 -8 -17 0
-25 9 -9 -3 -11 -52 -6 -36 4 -67 10 -70 15 -3 4 -16 7 -30 7 -14 0 -54 3 -90
7 -89 10 -194 -7 -266 -42 -48 -24 -58 -34 -56 -51 2 -12 -2 -22 -9 -22 -6 0
-18 -8 -25 -17 -10 -14 -16 -15 -22 -6 -11 17 -82 5 -82 -13 0 -8 -6 -14 -12
-15 -7 -1 -2 -5 12 -9 24 -8 24 -8 3 -9 -34 -1 -38 0 -35 11 3 12 -64 -37 -97
-70 -14 -14 -31 -22 -42 -19 -23 6 -25 -2 -4 -17 14 -10 14 -14 -4 -33 -18
-19 -18 -22 -4 -27 18 -7 46 12 37 25 -3 5 1 7 8 4 7 -3 26 7 43 22 16 16 33
27 36 26 4 -1 15 7 24 17 13 14 14 20 5 20 -17 0 -4 13 18 18 58 13 92 1 92
-31 0 -17 74 -47 118 -47 35 0 37 2 22 31 -7 12 -7 19 -1 19 13 0 41 -29 41
-43 0 -7 14 -12 30 -13 28 -1 30 2 30 32 0 21 -8 42 -20 54 -19 19 -19 20 1
31 12 6 18 17 15 25 -10 27 39 10 82 -29 21 -19 22 -19 22 -2 0 10 2 16 5 13
4 -3 24 -2 47 3 28 7 44 6 54 -2 8 -6 14 -8 14 -4 0 4 7 2 15 -5 8 -6 29 -11
47 -9 66 4 88 0 89 -18 0 -17 1 -17 7 0 12 28 64 58 79 45 19 -16 17 17 -3 36
-22 22 -14 20 40 -10 37 -21 44 -29 35 -40 -6 -7 -26 -16 -45 -20 -37 -7 -48
-34 -13 -34 11 0 18 -4 14 -10 -3 -5 7 -3 22 5 15 8 33 15 38 15 6 0 18 9 27
20 16 17 16 21 2 35 -13 13 -14 15 -1 15 9 0 17 -6 20 -12 3 -10 7 -10 17 -1
13 11 1 18 -51 28 -27 5 -26 4 -30 40 -2 17 -8 33 -14 37 -5 4 0 8 13 8 26 0
30 25 5 39 -16 9 -16 10 -2 16 9 3 32 7 51 8 19 1 43 10 52 20 11 10 26 15 36
12 10 -3 21 -1 25 6 5 8 -8 10 -48 6 -37 -3 -58 0 -60 7 -3 8 -8 8 -18 -1 -17
-13 -69 -20 -85 -11 -6 4 -10 -2 -10 -15 1 -16 -5 -22 -19 -22 -15 0 -20 7
-20 25 0 25 -24 36 -52 24z m-432 -141 c13 -16 12 -17 -3 -4 -17 13 -22 21
-14 21 2 0 10 -8 17 -17z m199 -1 c0 -12 -62 -13 -80 -2 -11 7 -1 10 33 10 26
0 47 -4 47 -8z m52 1 c-6 -2 -9 -10 -6 -15 4 -7 2 -8 -4 -4 -18 11 -14 26 6
25 10 0 12 -3 4 -6z m-345 -9 c-3 -3 -12 -4 -19 -1 -8 3 -5 6 6 6 11 1 17 -2
13 -5z m68 -14 c3 -5 2 -10 -4 -10 -5 0 -13 5 -16 10 -3 6 -2 10 4 10 5 0 13
-4 16 -10z m456 -8 c33 -28 20 -54 -22 -42 -17 5 -35 7 -40 5 -4 -3 -10 -1
-14 5 -3 5 -15 10 -25 10 -10 0 -22 5 -26 11 -5 9 10 10 52 7 32 -3 53 -3 47
-1 -15 5 -18 23 -4 23 5 0 19 -8 32 -18z m-481 -38 c0 -11 6 -13 20 -9 17 5
19 2 17 -25 -2 -32 -3 -32 -44 -26 -35 4 -41 3 -37 -9 4 -9 1 -15 -7 -14 -19
1 -56 17 -44 19 18 3 -30 19 -57 19 -55 2 -25 25 47 37 44 7 80 15 84 20 10 9
21 3 21 -12z"/>
<path d="M2298 1165 c-2 -3 -25 -5 -51 -6 -37 -2 -47 -6 -47 -19 0 -11 10 -20
25 -22 14 -3 25 -1 25 4 0 4 11 1 24 -7 21 -14 24 -14 30 0 3 9 2 13 -4 10
-13 -8 -13 1 0 26 10 18 9 25 -2 14z"/>
<path d="M2741 1137 c2 -1 15 -11 29 -22 l25 -20 -19 23 c-11 12 -24 22 -29
22 -6 0 -8 -1 -6 -3z"/>
<path d="M2845 1110 c-8 -13 5 -13 25 0 13 8 13 10 -2 10 -9 0 -20 -4 -23 -10z"/>
<path d="M2685 1101 c-3 -6 4 -15 15 -21 20 -11 21 -10 10 9 -12 23 -16 25
-25 12z"/>
<path d="M2715 1044 l-60 -36 40 7 c93 15 185 55 126 55 -11 0 -25 2 -33 4 -7
3 -40 -11 -73 -30z"/>
<path d="M2550 1000 c0 -5 5 -10 11 -10 5 0 7 5 4 10 -3 6 -8 10 -11 10 -2 0
-4 -4 -4 -10z"/>
<path d="M2619 991 c-13 -11 -19 -20 -14 -20 14 0 50 28 43 34 -3 3 -16 -3
-29 -14z"/>
<path d="M1580 961 c-22 -6 -23 -8 -7 -14 10 -4 27 -2 38 3 35 19 19 25 -31
11z"/>
<path d="M2050 890 c0 -5 4 -10 9 -10 5 0 11 -12 13 -27 2 -14 9 -28 16 -31
15 -5 7 43 -11 66 -11 14 -27 16 -27 2z"/>
<path d="M1345 850 c-3 -5 1 -10 9 -10 9 0 16 -5 16 -12 0 -6 2 -9 5 -6 7 7
-5 38 -15 38 -5 0 -12 -4 -15 -10z"/>
<path d="M2332 851 c-10 -6 -6 -10 15 -14 33 -6 44 0 23 13 -18 12 -22 12 -38
1z"/>
<path d="M2000 831 c0 -6 5 -13 10 -16 6 -3 10 1 10 9 0 9 -4 16 -10 16 -5 0
-10 -4 -10 -9z"/>
<path d="M1258 740 c-21 -21 -38 -42 -38 -46 0 -5 5 -3 12 4 17 17 33 15 18
-3 -20 -24 3 -17 31 8 13 13 31 27 39 30 11 4 9 6 -4 6 -16 1 -17 4 -8 13 16
16 15 28 0 28 -7 0 -30 -18 -50 -40z"/>
<path d="M1805 741 c-39 -6 -39 -7 -12 -14 32 -9 33 -16 8 -48 -15 -19 -16
-26 -6 -36 9 -8 15 -9 24 0 15 15 14 30 -1 22 -7 -4 -4 1 7 9 47 38 55 47 55
61 0 16 -9 16 -75 6z"/>
<path d="M2128 733 c7 -3 16 -2 19 1 4 3 -2 6 -13 5 -11 0 -14 -3 -6 -6z"/>
<path d="M2023 715 c-48 -14 -88 -41 -75 -49 5 -3 20 3 32 14 13 11 35 20 50
20 14 0 34 6 44 13 24 18 4 18 -51 2z"/>
<path d="M1357 653 c-16 -8 -47 -18 -70 -22 l-42 -8 39 -8 c25 -5 46 -4 57 3
18 12 79 -2 79 -17 0 -20 -23 -29 -44 -17 -11 7 -53 14 -92 15 -60 2 -79 -1
-122 -24 -48 -25 -68 -46 -55 -59 14 -14 31 -5 26 13 -4 16 3 22 34 30 48 14
153 14 153 1 0 -5 -4 -10 -8 -10 -5 0 -19 -9 -32 -20 l-23 -20 34 6 c19 4 39
13 45 20 9 11 18 12 39 4 32 -12 47 -6 38 17 -5 13 -3 15 13 8 34 -14 163 -22
168 -10 2 7 -8 10 -28 8 -28 -3 -24 1 12 13 12 4 -79 74 -96 74 -3 0 -16 -9
-28 -21 -20 -19 -51 -19 -40 -1 2 4 -4 14 -13 24 -14 14 -19 15 -44 1z m158
-73 c15 -7 10 -9 -23 -9 -26 -1 -41 3 -37 9 7 12 32 12 60 0z"/>
<path d="M1644 587 c-32 -27 -22 -38 22 -26 19 5 34 17 37 29 7 28 -25 26 -59
-3z"/>
<path d="M1735 590 c-3 -5 -1 -10 4 -10 6 0 11 5 11 10 0 6 -2 10 -4 10 -3 0
-8 -4 -11 -10z"/>
<path d="M945 520 c3 -5 8 -10 11 -10 2 0 4 5 4 10 0 6 -5 10 -11 10 -5 0 -7
-4 -4 -10z"/>
<path d="M1040 485 c0 -9 5 -13 10 -10 6 3 10 2 10 -3 0 -6 7 -12 14 -15 12
-5 13 -1 7 16 -10 26 -41 36 -41 12z"/>
<path d="M1002 468 c3 -7 12 -14 21 -16 12 -2 15 1 11 12 -7 19 -38 22 -32 4z"/>
<path d="M865 440 c4 -6 11 -8 16 -5 14 9 11 15 -7 15 -8 0 -12 -5 -9 -10z"/>
<path d="M1080 426 c0 -2 7 -6 15 -10 8 -3 15 -1 15 4 0 6 -7 10 -15 10 -8 0
-15 -2 -15 -4z"/>
<path d="M3510 222 c0 -24 8 -32 26 -25 20 7 17 20 -6 33 -17 9 -20 8 -20 -8z"/>
</g>
</svg>
