<?xml version="1.0" standalone="no"?>
<!DOCTYPE svg PUBLIC "-//W3C//DTD SVG 20010904//EN"
 "http://www.w3.org/TR/2001/REC-SVG-20010904/DTD/svg10.dtd">
<svg version="1.0" xmlns="http://www.w3.org/2000/svg"
 width="360.000000pt" height="240.000000pt" viewBox="0 0 360.000000 240.000000"
 preserveAspectRatio="xMidYMid meet">

<g transform="translate(0.000000,240.000000) scale(0.100000,-0.100000)"
fill="#000000" stroke="none">
<path d="M0 1230 c0 -643 2 -1170 5 -1170 3 0 15 9 27 20 12 11 28 20 35 20 7
0 13 5 13 10 0 6 12 10 26 10 22 0 24 3 15 14 -14 17 0 29 23 20 9 -3 16 -2
16 4 0 5 -7 12 -15 16 -31 12 -15 53 18 47 5 -1 5 4 1 11 -10 17 -13 48 -3 43
23 -15 35 8 34 65 0 33 4 60 10 60 6 1 -2 11 -16 23 -18 14 -27 32 -27 50 0
15 -7 36 -16 46 -9 10 -14 25 -11 34 4 8 2 18 -4 22 -18 11 -12 25 10 25 16 0
19 3 12 13 -15 19 -10 41 13 52 11 5 19 16 17 22 -3 7 8 15 24 19 15 3 49 12
75 20 27 7 48 11 48 8 0 -3 6 1 13 8 8 8 16 45 19 83 7 93 37 153 120 241 37
39 68 74 68 76 0 3 -43 27 -96 54 -105 54 -123 64 -239 133 -71 42 -81 52 -94
90 -11 36 -11 52 -1 97 10 40 10 74 3 136 -5 46 -7 85 -3 88 13 11 60 99 60
114 0 23 67 94 104 110 17 8 56 22 86 32 30 9 61 19 68 22 21 8 13 -25 -10
-41 -39 -26 -5 -35 80 -21 53 8 55 25 2 22 -22 -2 -38 1 -37 7 1 9 130 65 149
65 4 0 29 16 54 36 26 19 53 33 60 30 7 -3 18 2 24 10 7 8 19 14 28 14 13 0
14 -12 9 -75 -4 -41 -3 -75 1 -75 4 0 24 5 45 11 37 10 51 39 27 54 -18 11 40
49 74 49 68 -1 195 -22 217 -38 l23 -16 -29 0 c-25 -1 -34 -8 -52 -45 -21 -43
-21 -45 -3 -45 10 0 22 -5 26 -11 3 -6 17 -8 30 -5 42 11 28 -20 -23 -49 -43
-26 -47 -27 -59 -10 -12 16 -15 15 -37 -9 -13 -14 -29 -26 -35 -26 -6 0 -9 -7
-5 -15 8 -23 -23 -52 -64 -60 -20 -3 -45 -12 -57 -20 -24 -14 -137 -26 -178
-18 -16 3 -29 14 -32 26 l-6 22 -18 -22 c-15 -20 -23 -22 -69 -16 -29 3 -50
10 -47 15 3 5 13 6 22 4 20 -7 36 3 45 27 3 9 15 17 26 17 11 0 21 7 23 15 3
13 9 12 40 -5 51 -27 58 -25 58 11 0 40 -18 72 -36 65 -13 -5 -19 10 -15 42 2
17 -14 15 -33 -3 -19 -19 -41 -19 -71 1 -20 13 -25 13 -32 1 -14 -23 -42 -27
-85 -12 -48 16 -54 14 -39 -13 6 -12 11 -24 11 -28 0 -6 -64 -1 -141 12 -33 5
-37 3 -52 -27 -17 -37 -9 -59 23 -59 10 0 23 -13 30 -29 25 -62 206 -111 487
-132 133 -10 148 -10 159 5 6 9 10 25 8 34 -7 27 12 46 47 47 37 0 50 20 19
28 -37 9 -25 45 23 68 l43 21 55 -27 c30 -15 62 -34 71 -42 16 -14 20 -13 45
8 34 29 39 44 15 44 -20 1 -42 13 -42 24 0 5 26 8 58 8 59 0 134 -28 161 -61
12 -14 10 -16 -12 -16 -14 0 -28 -7 -31 -16 -5 -12 -14 -15 -37 -10 -22 4 -41
0 -63 -13 -17 -10 -64 -27 -104 -37 -69 -17 -74 -17 -102 0 -32 18 -38 10 -20
-25 8 -14 7 -19 -2 -20 -7 0 2 -5 20 -10 22 -7 66 -5 140 5 59 9 118 13 130 9
12 -3 28 -1 35 5 6 6 41 20 77 32 80 28 95 40 50 40 -44 0 -65 13 -56 35 5 14
14 15 49 10 52 -9 57 -12 57 -35 0 -10 6 -20 13 -23 20 -8 -4 -25 -65 -47 -80
-28 -313 -69 -444 -78 -226 -15 -559 19 -709 73 -89 31 -95 31 -95 -4 0 -130
401 -234 840 -217 333 12 603 79 715 177 22 19 42 29 53 26 9 -3 64 -24 122
-47 147 -57 268 -74 475 -66 232 8 330 19 350 39 24 25 68 21 95 -8 13 -14 34
-25 47 -25 23 0 73 43 73 63 0 5 9 7 19 4 15 -4 21 2 26 23 3 15 17 42 31 61
l24 33 0 -48 c0 -37 -5 -52 -24 -69 -18 -17 -22 -27 -15 -44 14 -38 28 -26 41
37 6 32 18 62 25 65 9 3 11 0 6 -8 -4 -6 5 -4 20 6 14 9 33 17 40 17 8 0 19
15 25 33 10 31 10 30 11 -23 0 -30 -4 -75 -8 -99 -15 -78 10 -93 69 -41 18 17
37 30 42 30 4 0 8 5 8 10 0 6 -10 10 -23 10 -29 0 -37 7 -30 26 3 9 13 12 24
9 23 -7 73 18 93 47 17 24 20 23 30 -9 6 -18 3 -23 -10 -23 -13 0 -14 -3 -5
-14 17 -20 4 -89 -15 -82 -9 4 -14 -2 -14 -15 0 -11 4 -18 9 -14 5 3 11 -7 13
-22 3 -26 5 -24 18 17 8 25 24 64 37 87 12 23 25 58 29 78 6 36 21 44 42 23 9
-9 12 13 12 100 l0 112 -27 1 -28 1 28 11 c25 10 27 15 27 64 0 36 -4 53 -12
53 -31 0 -88 -22 -87 -33 3 -24 -1 -37 -12 -37 -5 0 -7 5 -4 10 13 20 -21 39
-59 33 -37 -6 -49 -29 -20 -40 8 -3 13 -11 10 -18 -5 -14 29 -47 59 -57 19 -6
19 -6 -2 -7 -12 -1 -25 4 -29 10 -4 8 -9 7 -15 -2 -15 -24 -10 -27 29 -26 31
2 37 -1 40 -20 3 -24 -7 -30 -23 -14 -17 16 -126 19 -132 5 -3 -8 9 -52 26
-99 17 -47 27 -85 22 -85 -5 0 -16 -3 -24 -6 -10 -4 -26 11 -48 43 -18 26 -43
56 -55 65 -20 16 -124 151 -150 194 -19 30 -29 7 -27 -58 4 -86 -12 -107 -26
-37 -15 71 -16 327 -2 359 9 21 10 16 8 -33 -1 -31 1 -57 6 -57 4 0 7 6 7 13
0 6 26 24 57 38 l57 25 -68 24 c-75 27 -95 48 -68 73 9 8 31 18 47 22 l30 7
-32 -22 c-18 -12 -33 -24 -33 -26 0 -10 62 -33 125 -47 95 -21 323 -41 368
-33 34 6 37 10 37 42 0 28 -5 36 -25 44 -14 5 -25 12 -25 15 0 3 11 3 25 -1
23 -6 25 -4 25 30 l0 36 -1800 0 -1800 0 0 -1170z m1477 1021 c44 -20 79 -70
69 -98 -8 -20 -95 -8 -118 18 -20 23 -102 27 -115 5 -8 -13 -183 -31 -183 -17
0 14 17 29 60 56 85 54 212 69 287 36z m1002 -55 c68 -36 10 -76 -109 -76 -67
0 -93 12 -50 23 15 4 20 14 20 42 l0 38 54 -6 c30 -3 68 -13 85 -21z m-365
-47 c16 -15 0 -20 -32 -8 -40 14 -43 34 -4 24 15 -3 31 -11 36 -16z m-433
-163 c24 -8 99 -16 167 -19 164 -5 170 -11 51 -53 -41 -15 -85 -37 -100 -50
-31 -30 -39 -30 -39 -3 0 18 -4 20 -27 14 -98 -24 -106 -19 -115 67 -7 65 -6
66 63 44z m1835 -43 c-11 -11 -19 6 -11 24 8 17 8 17 12 0 3 -10 2 -21 -1 -24z
m-497 -6 c13 -33 3 -40 -50 -33 -40 5 -49 4 -49 -8 0 -9 12 -23 26 -33 25 -16
27 -16 44 6 l17 24 6 -38 c4 -27 1 -48 -13 -74 -26 -52 -41 -61 -103 -68 -51
-5 -59 -3 -101 27 -29 21 -47 43 -51 61 -4 16 -20 43 -36 60 -16 17 -29 33
-29 35 0 2 21 4 48 4 40 0 52 5 72 28 24 27 29 29 118 29 87 1 94 0 101 -20z
m536 -94 c-4 -11 -9 -13 -16 -6 -6 6 -6 19 2 39 12 28 13 28 17 6 2 -13 1 -31
-3 -39z m-1625 -3 c0 -5 -5 -10 -11 -10 -5 0 -7 5 -4 10 3 6 8 10 11 10 2 0 4
-4 4 -10z m-180 -13 c0 -19 -48 -61 -98 -87 -61 -30 -52 -6 18 53 57 47 80 57
80 34z m1786 -63 c-12 -47 -32 -89 -38 -79 -8 13 22 105 35 105 5 0 6 -12 3
-26z m-1579 -34 c62 -29 147 -47 333 -69 73 -8 71 -8 -60 -10 -150 -1 -221 12
-302 56 -102 55 -79 74 29 23z"/>
<path d="M3290 2222 c14 -8 101 -20 219 -28 24 -1 49 -8 54 -13 19 -19 37 -12
37 14 l0 25 -144 0 c-79 0 -153 3 -163 6 -14 4 -15 4 -3 -4z"/>
<path d="M3378 2163 c12 -2 30 -2 40 0 9 3 -1 5 -23 4 -22 0 -30 -2 -17 -4z"/>
<path d="M3315 2050 c4 -6 11 -8 16 -5 14 9 11 15 -7 15 -8 0 -12 -5 -9 -10z"/>
<path d="M3320 2010 c0 -5 5 -10 11 -10 5 0 7 5 4 10 -3 6 -8 10 -11 10 -2 0
-4 -4 -4 -10z"/>
<path d="M3315 1950 c-4 -6 6 -10 22 -11 15 0 22 -3 15 -6 -10 -4 -10 -8 -1
-19 14 -18 29 -17 53 1 16 12 17 17 6 30 -14 17 -85 21 -95 5z"/>
<path d="M799 1854 c-12 -14 -10 -19 14 -40 30 -26 57 -30 88 -14 41 22 18 58
-43 65 -34 4 -48 2 -59 -11z"/>
<path d="M1330 1820 c0 -5 5 -10 10 -10 6 0 10 5 10 10 0 6 -4 10 -10 10 -5 0
-10 -4 -10 -10z"/>
<path d="M3240 1651 c0 -37 -11 -44 -46 -31 -15 6 -28 9 -29 8 -2 -2 -5 -21
-7 -42 -2 -29 1 -40 12 -42 8 -2 25 -6 37 -9 15 -5 24 -2 31 12 13 26 23 133
11 133 -5 0 -9 -13 -9 -29z"/>
<path d="M3514 1575 c-9 -22 3 -32 49 -40 45 -9 52 13 9 33 -48 24 -52 24 -58
7z"/>
<path d="M1660 1390 c0 -5 6 -10 14 -10 8 0 18 5 21 10 3 6 -3 10 -14 10 -12
0 -21 -4 -21 -10z"/>
<path d="M1740 1376 c0 -2 7 -6 15 -10 8 -3 15 -1 15 4 0 6 -7 10 -15 10 -8 0
-15 -2 -15 -4z"/>
<path d="M3146 1362 c-3 -6 -1 -14 5 -17 15 -10 25 3 12 16 -7 7 -13 7 -17 1z"/>
<path d="M1213 1343 c9 -2 23 -2 30 0 6 3 -1 5 -18 5 -16 0 -22 -2 -12 -5z"/>
<path d="M1735 1340 c3 -5 8 -10 11 -10 2 0 4 5 4 10 0 6 -5 10 -11 10 -5 0
-7 -4 -4 -10z"/>
<path d="M3450 1320 c0 -5 6 -10 14 -10 8 0 21 -3 30 -6 11 -4 16 -1 16 10 0
11 -9 16 -30 16 -16 0 -30 -4 -30 -10z"/>
<path d="M1195 1310 c-11 -17 5 -32 21 -19 8 6 14 15 14 20 0 12 -27 11 -35
-1z"/>
<path d="M1773 1300 c6 -11 15 -20 19 -20 12 0 -3 28 -18 34 -11 4 -12 2 -1
-14z"/>
<path d="M995 1291 c-118 -26 -273 -81 -305 -108 -15 -12 -33 -23 -39 -23 -6
0 -11 -7 -11 -15 0 -9 -6 -12 -17 -8 -12 5 -14 3 -8 -7 6 -10 4 -12 -7 -7 -10
3 -35 -11 -68 -39 -28 -24 -48 -44 -44 -44 4 0 16 7 26 17 10 9 21 13 25 10 4
-4 -2 -14 -13 -23 -18 -14 -18 -15 4 -4 15 7 22 7 22 0 0 -5 5 -10 11 -10 5 0
7 4 4 10 -3 5 10 20 29 32 20 13 36 29 36 37 0 11 3 11 15 1 13 -10 19 -10 33
4 10 9 25 16 34 16 8 0 37 11 64 25 27 14 56 25 65 25 22 0 88 29 69 30 -8 1
-1 7 15 14 17 7 33 11 37 9 4 -2 5 3 1 12 -4 13 -1 16 13 13 10 -2 27 3 36 11
9 8 23 16 30 17 7 1 24 7 38 12 40 17 -2 13 -95 -7z"/>
<path d="M1237 1290 c-3 -13 0 -20 9 -20 8 0 14 -5 14 -12 0 -6 2 -9 5 -6 3 3
-1 17 -9 32 -13 25 -14 25 -19 6z"/>
<path d="M1820 1298 c0 -5 9 -23 21 -39 11 -16 16 -29 10 -29 -5 0 -13 5 -16
10 -3 6 -10 10 -16 10 -5 0 0 -9 12 -21 11 -11 26 -19 32 -16 8 3 13 -12 14
-45 1 -40 -1 -47 -12 -38 -14 12 -107 11 -99 -1 9 -15 -19 -22 -90 -23 -54 -1
-79 -7 -105 -23 -27 -17 -38 -19 -60 -11 -14 6 -36 14 -48 19 -67 26 -74 32
-68 57 5 20 3 23 -10 18 -9 -3 -19 -6 -21 -6 -2 0 -4 -13 -4 -29 0 -37 -9 -43
-49 -35 -22 5 -31 12 -29 23 2 9 10 16 19 16 15 0 49 27 49 39 0 3 -6 6 -14 6
-8 0 -21 6 -28 14 -8 7 -24 17 -36 20 -19 7 -22 4 -22 -23 0 -17 -4 -31 -10
-31 -5 0 -10 10 -10 22 0 21 -1 21 -13 3 -8 -10 -19 -15 -25 -11 -17 10 -23
-10 -7 -24 8 -7 15 -21 15 -31 0 -15 -4 -17 -24 -9 -19 7 -26 5 -31 -7 -8 -22
9 -36 68 -57 35 -13 47 -22 43 -33 -3 -8 -6 -17 -6 -19 0 -10 -28 -3 -39 9 -7
10 -30 13 -73 11 -48 -2 -71 2 -96 17 l-33 19 3 -22 c2 -15 13 -24 35 -30 22
-6 30 -13 27 -23 -5 -11 2 -13 33 -8 35 6 37 5 24 -10 -7 -10 -20 -17 -27 -17
-7 0 -11 -6 -8 -14 4 -10 -2 -12 -19 -9 -31 6 -87 -33 -87 -59 0 -10 -4 -18
-10 -18 -5 0 -10 5 -10 11 0 6 -13 1 -30 -11 -38 -27 -41 -70 -6 -105 24 -24
35 -28 108 -40 29 -5 39 -11 44 -30 6 -23 24 -36 24 -17 0 5 38 9 83 11 78 1
84 0 95 -21 6 -13 11 -17 11 -10 1 6 9 12 20 12 10 0 24 7 31 15 7 8 20 15 30
15 10 0 20 10 24 23 14 53 1 151 -19 143 -8 -3 -15 10 -19 36 -8 46 -5 50 29
54 20 2 25 -2 26 -19 1 -12 4 -44 6 -72 12 -126 -3 -194 -62 -271 -26 -34 -32
-59 -15 -69 19 -12 141 54 183 100 52 56 82 61 65 13 -6 -18 -16 -36 -22 -40
-8 -5 -7 -8 1 -8 7 0 18 12 25 27 10 21 20 28 38 26 14 -1 108 -9 210 -19 202
-18 202 -18 276 -9 42 5 53 11 63 32 9 19 15 22 24 14 10 -8 23 -4 50 15 43
29 43 31 17 64 -11 14 -20 29 -20 33 0 20 -42 97 -58 109 -27 20 -73 84 -65
91 3 4 44 7 90 7 46 0 82 4 79 8 -3 5 -42 12 -87 15 -45 4 -88 12 -95 18 -12
10 -13 9 -8 -5 4 -9 1 -16 -6 -16 -8 0 -10 9 -6 24 7 30 -31 85 -46 64 -7 -9
-8 -7 -4 8 4 13 -1 27 -13 38 -12 11 -19 31 -19 53 0 38 -17 56 -44 47 -31 -9
-58 5 -58 31 0 28 -20 45 -21 18 -1 -16 -10 -5 -11 14 -1 10 -39 37 -55 39 -7
1 -13 -2 -13 -8z m94 -114 c-1 -14 -5 -28 -8 -31 -10 -10 -24 41 -15 53 5 6 5
15 1 20 -4 4 0 3 9 -4 9 -7 15 -23 13 -38z m116 -81 c0 -14 -23 -43 -35 -43
-7 0 -15 -6 -18 -12 -3 -10 -9 -8 -23 4 -17 16 -16 18 10 28 15 5 25 14 22 19
-4 5 0 11 6 14 14 4 38 -2 38 -10z m-777 -8 c40 -16 53 -30 37 -40 -6 -3 -13
0 -16 8 -6 17 -44 30 -44 16 0 -5 -4 -9 -10 -9 -5 0 -10 9 -10 20 0 24 -1 24
43 5z m232 -31 c11 -8 20 -20 20 -27 1 -18 -26 -35 -46 -30 -19 5 -34 -12 -24
-27 5 -8 12 -7 23 2 15 12 16 11 4 -4 -15 -18 -21 -17 -89 20 -48 25 -57 37
-17 22 34 -13 34 -13 34 13 0 40 58 59 95 31z m155 -29 c-7 -8 -17 -15 -22
-15 -6 0 -5 7 2 15 7 8 17 15 22 15 6 0 5 -7 -2 -15z m77 -41 c27 -20 32 -29
23 -38 -9 -8 -14 -8 -17 2 -3 6 -13 12 -24 12 -10 0 -19 5 -19 11 0 6 -7 9
-15 5 -8 -3 -15 -4 -15 -2 0 3 -3 11 -6 20 -10 26 34 20 73 -10z m243 -9 c0
-8 5 -15 11 -15 6 0 3 -7 -5 -16 -9 -9 -16 -32 -16 -54 0 -21 -5 -42 -10 -45
-7 -4 -8 11 -4 44 6 47 5 49 -15 44 -29 -7 -41 25 -16 43 25 18 55 18 55 -1z
m-785 -25 c3 -5 -1 -10 -10 -10 -9 0 -13 5 -10 10 3 6 8 10 10 10 2 0 7 -4 10
-10z m465 -1 c11 -8 12 -12 3 -16 -20 -8 -15 -41 7 -48 24 -8 25 -18 3 -40
-12 -13 -13 -19 -4 -25 9 -5 4 -9 -14 -14 -18 -5 -31 -18 -41 -42 -12 -28 -18
-33 -28 -24 -8 6 -17 22 -20 35 -4 14 -13 25 -22 25 -8 0 -13 4 -10 9 10 16
-5 41 -25 41 -41 0 -12 35 36 44 17 3 35 12 41 21 6 8 15 15 19 15 4 0 2 -6
-4 -14 -9 -10 -7 -16 5 -27 13 -11 17 -10 25 2 11 18 11 26 -1 34 -14 9 -12
35 3 35 6 0 19 -5 27 -11z m153 -23 c4 -9 -3 -13 -23 -12 -21 1 -26 4 -18 14
14 16 35 15 41 -2z m249 -44 c-6 -18 -26 -9 -30 13 -3 10 0 15 7 11 6 -4 11 0
12 11 0 16 1 16 8 -2 5 -11 6 -26 3 -33z m-980 -22 c-6 -11 -12 -32 -12 -47
-1 -24 -2 -26 -11 -10 -6 9 -8 26 -4 36 3 11 1 22 -5 26 -7 5 -5 11 7 20 25
18 42 1 25 -25z m207 11 c3 -1 -2 -7 -11 -13 -9 -7 -18 -22 -21 -33 -4 -18 -5
-18 -6 2 -1 27 -37 49 -54 35 -8 -7 -19 -6 -32 4 -18 14 -13 15 50 10 39 -3
72 -5 74 -5z m475 -48 c-12 -9 -21 -10 -28 -3 -14 14 11 31 32 22 12 -4 12 -7
-4 -19z m66 -58 c0 -20 -36 -55 -56 -55 -13 0 -11 6 10 26 14 15 26 31 26 35
0 5 5 9 10 9 6 0 10 -7 10 -15z m377 -47 c-3 -8 -6 -5 -6 6 -1 11 2 17 5 13 3
-3 4 -12 1 -19z m-673 -97 c13 -20 -8 -38 -85 -80 -45 -24 -77 -37 -72 -30 80
126 74 119 114 119 21 0 40 -4 43 -9z"/>
<path d="M1585 820 c-8 -13 5 -13 25 0 13 8 13 10 -2 10 -9 0 -20 -4 -23 -10z"/>
<path d="M1429 604 c-12 -14 -11 -16 5 -13 11 2 21 10 24 17 5 17 -13 15 -29
-4z"/>
<path d="M3105 1300 c3 -5 8 -10 11 -10 2 0 4 5 4 10 0 6 -5 10 -11 10 -5 0
-7 -4 -4 -10z"/>
<path d="M1288 1288 c9 -9 15 -9 24 0 9 9 7 12 -12 12 -19 0 -21 -3 -12 -12z"/>
<path d="M3233 1260 c2 -32 6 -42 22 -45 56 -12 194 -38 225 -42 33 -4 34 -3
16 11 -11 9 -31 16 -44 16 -43 0 -64 18 -57 49 5 24 3 28 -17 26 -13 -1 -45 4
-73 12 -72 19 -73 18 -72 -27z m69 -27 c-28 -15 -48 -4 -39 21 5 12 11 13 36
3 l29 -11 -26 -13z"/>
<path d="M1448 1259 c-24 -13 -23 -29 1 -29 21 0 45 23 34 33 -8 9 -15 8 -35
-4z"/>
<path d="M1741 1258 c0 -7 4 -22 9 -33 8 -18 9 -17 9 7 1 15 -3 30 -9 33 -5 3
-10 0 -9 -7z"/>
<path d="M1379 1243 c0 -11 -3 -13 -6 -5 -8 20 -18 14 -18 -13 0 -26 4 -29 29
-19 8 3 12 12 9 20 -3 9 1 14 12 14 9 0 13 5 10 10 -10 16 -35 11 -36 -7z"/>
<path d="M1300 1240 c0 -5 5 -10 11 -10 5 0 7 5 4 10 -3 6 -8 10 -11 10 -2 0
-4 -4 -4 -10z"/>
<path d="M1151 1216 c-7 -8 -8 -17 -3 -20 6 -3 13 1 16 10 9 23 2 28 -13 10z"/>
<path d="M1467 1216 c-6 -14 0 -26 13 -26 3 0 6 9 7 20 2 23 -12 27 -20 6z"/>
<path d="M1770 1219 c0 -6 7 -9 15 -5 8 3 15 1 15 -4 0 -6 8 -10 18 -9 10 0
12 3 4 6 -6 2 -10 9 -6 14 3 5 -6 9 -20 9 -14 0 -26 -5 -26 -11z"/>
<path d="M855 1101 c-19 -8 -18 -9 7 -21 30 -14 62 -7 56 13 -5 15 -36 19 -63
8z"/>
<path d="M1518 1103 c7 -3 16 -2 19 1 4 3 -2 6 -13 5 -11 0 -14 -3 -6 -6z"/>
<path d="M930 1057 c0 -9 -10 -12 -30 -9 -32 5 -39 -8 -15 -28 8 -7 15 -27 15
-44 0 -43 11 -77 22 -74 15 5 57 109 58 141 0 22 -4 27 -25 27 -14 0 -25 -6
-25 -13z"/>
<path d="M1105 1030 c-3 -6 1 -7 9 -4 18 7 21 14 7 14 -6 0 -13 -4 -16 -10z"/>
<path d="M1148 1023 c7 -3 16 -2 19 1 4 3 -2 6 -13 5 -11 0 -14 -3 -6 -6z"/>
<path d="M466 1007 c3 -10 9 -15 12 -12 3 3 0 11 -7 18 -10 9 -11 8 -5 -6z"/>
<path d="M867 980 c3 -11 7 -20 9 -20 2 0 4 9 4 20 0 11 -4 20 -9 20 -5 0 -7
-9 -4 -20z"/>
<path d="M2245 930 c3 -5 16 -10 28 -9 21 0 21 1 2 9 -28 12 -37 12 -30 0z"/>
<path d="M3435 919 c-101 -8 -194 -31 -275 -66 -66 -29 -62 -32 70 -62 52 -12
104 -24 115 -28 16 -4 15 0 -9 26 -16 17 -27 33 -24 37 4 3 24 -18 46 -48 73
-96 148 -155 170 -133 3 3 5 51 5 108 -1 56 1 94 4 85 5 -21 23 -24 23 -5 0
21 -20 86 -28 90 -4 1 -47 0 -97 -4z"/>
<path d="M3561 904 c0 -11 3 -14 6 -6 3 7 2 16 -1 19 -3 4 -6 -2 -5 -13z"/>
<path d="M2490 900 l-25 -8 28 -1 c15 -1 27 4 27 9 0 6 -1 10 -2 9 -2 -1 -14
-5 -28 -9z"/>
<path d="M2400 890 c0 -5 5 -10 10 -10 6 0 10 5 10 10 0 6 -4 10 -10 10 -5 0
-10 -4 -10 -10z"/>
<path d="M2800 835 c-1 -46 -25 -127 -35 -118 -4 4 -5 3 -1 -4 4 -7 -2 -21
-14 -33 -11 -11 -20 -27 -20 -36 0 -8 -4 -13 -9 -9 -5 3 -12 -3 -15 -13 -3 -9
-16 -24 -27 -32 -12 -8 -39 -29 -60 -47 -43 -34 -203 -115 -289 -145 -101 -35
-284 -77 -410 -94 -191 -26 -525 -24 -700 4 -223 36 -513 119 -566 162 -16 13
-17 13 -9 0 4 -8 -3 -5 -16 6 -13 12 -34 25 -46 28 -11 4 -27 13 -33 21 -17
20 -30 19 -30 -2 0 -29 48 -124 84 -168 54 -65 183 -161 263 -195 13 -5 42
-19 65 -30 23 -11 46 -20 51 -20 5 0 23 -6 40 -14 57 -24 172 -55 320 -87 29
-6 202 -9 450 -7 413 3 448 6 572 49 17 6 54 17 84 25 132 36 325 142 396 219
34 36 85 118 91 145 3 14 9 34 14 46 13 34 3 146 -19 205 -14 36 -41 78 -76
115 l-54 59 -1 -30z"/>
<path d="M2270 810 c0 -5 5 -10 10 -10 6 0 10 5 10 10 0 6 -4 10 -10 10 -5 0
-10 -4 -10 -10z"/>
<path d="M3052 776 c-38 -43 -57 -102 -48 -148 10 -53 77 -136 167 -208 30
-24 53 -47 51 -52 -3 -11 44 -40 166 -99 103 -51 141 -57 90 -16 -14 12 -45
37 -68 56 -23 18 -51 54 -63 79 -15 31 -34 52 -62 68 -46 25 -67 70 -91 193
-15 82 -57 154 -91 159 -13 2 -32 -10 -51 -32z m203 -416 c3 -5 2 -10 -4 -10
-5 0 -13 5 -16 10 -3 6 -2 10 4 10 5 0 13 -4 16 -10z"/>
<path d="M3550 740 c0 -8 5 -22 10 -30 9 -13 10 -13 10 0 0 8 -5 22 -10 30 -9
13 -10 13 -10 0z"/>
<path d="M2235 610 c-8 -14 3 -30 21 -30 16 0 16 2 8 24 -7 18 -20 21 -29 6z"/>
<path d="M3541 604 c0 -11 3 -14 6 -6 3 7 2 16 -1 19 -3 4 -6 -2 -5 -13z"/>
<path d="M3551 524 c0 -11 3 -14 6 -6 3 7 2 16 -1 19 -3 4 -6 -2 -5 -13z"/>
<path d="M3270 280 c37 -51 147 -143 232 -192 45 -27 86 -48 90 -48 4 0 8 40
8 90 l0 89 -36 7 c-22 4 -40 2 -47 -5 -8 -8 -7 -11 3 -11 7 0 11 -2 8 -5 -6
-7 -116 34 -198 74 -79 38 -87 39 -60 1z"/>
</g>
</svg>
