<?xml version="1.0" standalone="no"?>
<!DOCTYPE svg PUBLIC "-//W3C//DTD SVG 20010904//EN"
 "http://www.w3.org/TR/2001/REC-SVG-20010904/DTD/svg10.dtd">
<svg version="1.0" xmlns="http://www.w3.org/2000/svg"
 width="360.000000pt" height="450.000000pt" viewBox="0 0 360.000000 450.000000"
 preserveAspectRatio="xMidYMid meet">

<g transform="translate(0.000000,450.000000) scale(0.100000,-0.100000)"
fill="#000000" stroke="none">
<path d="M0 3550 l0 -950 27 5 c39 7 378 46 438 51 28 2 137 15 244 29 107 14
197 22 200 20 6 -7 6 -10 15 -110 4 -44 9 -95 13 -113 5 -32 5 -33 -23 -27
-28 6 -28 6 -10 -9 11 -9 23 -16 27 -16 4 0 10 -21 14 -47 l7 -48 21 43 c14
29 27 42 41 42 17 0 18 2 7 9 -12 8 -3 23 42 78 31 38 79 89 108 113 58 49
201 138 236 146 13 4 23 9 22 13 0 3 -33 22 -72 41 -52 25 -93 56 -149 112
-208 209 -247 526 -94 776 33 55 118 144 181 191 l29 22 22 -63 c13 -35 23
-56 23 -47 1 9 -6 36 -14 59 -8 23 -15 48 -15 54 0 12 80 48 150 67 25 7 53
19 63 27 9 8 17 11 17 6 0 -6 27 -8 63 -6 225 14 454 -101 582 -293 50 -76 95
-204 95 -272 0 -62 15 -70 23 -13 11 88 106 158 192 145 24 -3 58 -16 77 -28
30 -21 33 -28 36 -77 2 -52 -1 -59 -49 -127 -53 -77 -74 -87 -113 -58 -23 17
-40 20 -31 5 3 -5 0 -10 -7 -10 -7 0 -4 -6 7 -12 10 -6 41 -11 67 -10 57 1
104 30 123 76 11 25 15 28 20 14 12 -30 -44 -110 -98 -140 -18 -10 -52 -18
-78 -18 -80 0 -119 41 -148 155 -7 26 -9 21 -15 -35 -9 -78 -48 -199 -82 -257
-45 -77 -120 -158 -193 -208 l-71 -49 72 -26 c133 -49 233 -114 336 -219 304
-311 323 -823 45 -1164 -110 -134 -285 -248 -453 -293 -70 -19 -315 -26 -397
-11 l-43 7 20 -32 c11 -18 20 -40 20 -48 -1 -8 -7 0 -15 17 -18 42 -59 83 -82
83 -11 0 -14 -3 -7 -8 14 -10 60 -87 47 -79 -7 5 -14 -8 -18 -34 -4 -22 -13
-53 -21 -67 -8 -15 -14 -34 -14 -42 0 -8 -19 4 -45 30 -42 41 -49 44 -110 48
-36 2 -65 9 -65 14 0 5 10 23 23 39 59 79 89 107 120 114 l32 7 -30 11 c-55
19 -198 120 -265 188 -78 78 -150 189 -190 292 -32 82 -60 207 -60 267 0 22
-4 40 -8 40 -4 0 -84 -11 -177 -24 -94 -14 -286 -40 -427 -58 l-258 -33 0
-227 c0 -171 3 -228 12 -228 9 0 9 -3 0 -12 -7 -7 -12 -40 -12 -80 0 -66 12
-89 25 -47 4 13 12 18 21 15 8 -3 12 -2 9 3 -3 5 3 12 13 15 11 4 46 27 78 52
32 25 76 55 97 66 44 22 45 34 2 18 -15 -6 -30 -9 -32 -6 -3 2 27 14 66 26 50
16 68 26 64 36 -3 8 0 14 6 14 6 0 11 -4 11 -10 0 -5 24 -11 53 -12 40 -1 44
-2 17 -5 -41 -5 -66 -23 -31 -23 29 0 120 -38 147 -62 16 -14 23 -15 32 -6 7
7 12 9 12 4 0 -18 -24 -33 -120 -72 -52 -22 -79 -42 -76 -58 2 -6 1 -8 -1 -3
-3 4 -9 7 -14 7 -6 0 -7 -6 -3 -12 4 -8 3 -10 -2 -5 -5 5 -9 13 -9 17 0 5 -9
16 -20 25 -18 15 -17 15 12 0 32 -15 33 -15 55 16 13 17 22 36 20 41 -2 6 5
19 14 29 21 23 13 23 -45 3 -25 -8 -55 -13 -67 -10 -35 9 -53 -28 -24 -51 10
-9 1 -8 -29 2 -52 18 -71 19 -71 4 0 -16 -24 -36 -38 -31 -6 2 -12 -3 -12 -12
0 -9 -4 -16 -10 -16 -5 0 -6 7 -3 17 5 12 3 14 -8 8 -37 -22 -82 -79 -47 -59
9 5 10 4 3 -3 -5 -6 -25 -13 -43 -16 -24 -5 -32 -3 -32 8 0 8 -4 15 -10 15 -5
0 -10 -18 -10 -41 0 -34 3 -40 18 -35 9 3 44 6 76 7 65 3 75 -7 50 -52 -7 -13
-13 -19 -14 -12 0 7 -10 2 -22 -10 -22 -21 -22 -23 -5 -37 10 -8 19 -22 21
-30 2 -8 8 -28 14 -43 7 -16 12 -34 12 -42 0 -8 5 -17 12 -21 8 -5 9 0 4 17
-18 57 -18 69 -4 69 8 0 18 -17 24 -41 5 -25 18 -48 32 -57 19 -13 22 -13 22
0 0 8 -10 20 -23 27 -12 6 -14 9 -4 7 20 -6 22 3 4 29 -14 21 -37 133 -37 179
0 25 2 26 63 26 l62 0 -1 -68 c0 -37 4 -78 9 -92 5 -14 9 -40 8 -58 0 -22 3
-31 11 -26 7 5 9 2 5 -9 -3 -8 1 -21 9 -28 12 -10 13 -9 8 5 -5 13 1 16 29 16
23 0 39 6 45 16 7 13 9 9 8 -15 -1 -20 -5 -30 -13 -26 -7 2 -13 -3 -13 -11 0
-11 6 -13 21 -9 12 4 27 8 33 9 6 1 17 6 25 10 10 6 12 5 7 -2 -5 -8 -2 -10 8
-6 9 3 14 10 11 14 -3 4 7 11 20 14 14 4 23 10 21 15 -3 5 2 8 12 7 9 0 16 5
15 11 -2 7 2 13 7 13 6 0 10 -5 10 -12 0 -6 14 1 30 17 16 16 30 33 30 37 0 5
9 19 21 31 19 20 20 21 13 2 -17 -48 -95 -134 -146 -161 -48 -25 -161 -63
-236 -79 -86 -18 -192 -20 -192 -4 0 6 7 8 16 5 9 -4 13 -2 8 5 -4 7 0 9 12 6
55 -15 91 -17 91 -4 0 7 -12 14 -25 15 -14 1 -31 7 -38 13 -7 6 -19 7 -26 3
-9 -6 -9 -3 1 10 8 9 10 16 5 15 -21 -4 -45 2 -40 10 3 4 -12 26 -33 47 -21
22 -42 50 -46 64 -5 20 -4 22 5 10 10 -13 11 -12 6 3 -3 10 -6 21 -6 23 0 3
-4 3 -9 0 -5 -4 -12 7 -16 24 -14 66 -26 27 -24 -83 1 -97 4 -113 18 -114 38
-3 60 -8 56 -12 -3 -2 1 -11 8 -19 13 -16 13 -16 -38 4 -13 5 -15 -10 -15
-100 0 -88 -3 -106 -15 -106 -13 0 -15 -25 -14 -167 1 -126 3 -158 10 -129 18
75 44 104 116 126 36 11 82 23 102 26 30 5 42 16 76 66 42 65 147 152 224 186
29 14 80 59 161 145 65 69 127 139 139 156 l22 31 35 -35 c21 -21 34 -44 34
-60 0 -35 32 -64 80 -71 22 -4 48 -12 57 -20 16 -11 10 -21 -73 -106 -50 -51
-132 -138 -182 -193 -49 -55 -120 -129 -156 -165 -37 -36 -89 -92 -115 -125
-50 -63 -161 -221 -161 -230 0 -3 431 -5 957 -5 l958 0 -25 24 c-18 18 -50 30
-120 45 -52 11 -134 29 -182 39 l-86 20 -26 -48 c-15 -28 -35 -50 -48 -54 -42
-11 -164 24 -205 60 -39 34 -53 42 -110 66 -44 17 -44 48 -1 71 43 24 173 149
273 262 189 215 351 392 510 555 94 97 186 194 205 218 19 23 43 42 52 42 22
0 155 -82 201 -124 l36 -33 -14 -60 c-16 -69 -52 -169 -72 -199 -8 -13 -11
-32 -8 -47 4 -14 2 -28 -4 -31 -7 -4 -11 1 -11 13 0 25 -16 36 -23 17 -3 -8
-1 -17 6 -20 7 -2 4 -5 -6 -5 -16 -1 -17 -3 -4 -16 9 -8 17 -19 19 -25 4 -11
84 -17 95 -6 4 4 7 33 7 64 -1 46 1 52 8 32 5 -14 7 -43 3 -65 l-5 -40 48 -17
c67 -24 132 -84 197 -183 30 -46 61 -87 67 -91 7 -4 5 2 -4 13 -26 28 -23 33
22 33 22 0 40 -4 40 -10 0 -5 -7 -7 -15 -4 -8 4 -15 1 -15 -5 0 -6 4 -11 9
-11 13 0 21 -38 8 -43 -22 -7 6 -28 31 -23 15 2 47 1 72 -3 27 -5 35 -9 20
-10 -26 -1 -65 -21 -42 -21 6 0 12 -7 12 -15 0 -11 12 -15 43 -16 23 -1 45 -1
50 0 4 0 7 -4 7 -9 0 -6 13 -10 29 -10 17 0 33 -4 36 -10 3 -6 -2 -8 -12 -5
-10 3 -2 -2 17 -11 19 -9 43 -20 52 -25 10 -5 38 -9 62 -9 25 0 48 -5 51 -10
4 -6 16 -8 27 -4 15 4 18 3 13 -6 -5 -8 -3 -11 6 -8 12 4 14 108 17 635 l2
631 -67 -34 c-352 -179 -791 44 -869 442 -51 258 79 514 320 629 85 40 163 57
262 57 101 -1 173 -19 271 -68 l83 -41 0 32 c0 21 -6 35 -16 39 -24 9 -31 7
-12 -5 15 -8 15 -13 5 -23 -6 -8 -16 -12 -21 -9 -4 3 -2 10 5 15 10 7 8 8 -8
3 -12 -3 -24 -1 -28 4 -4 7 1 8 11 4 11 -4 15 -3 11 4 -4 6 -3 13 2 15 6 2 6
30 -1 76 -9 55 -9 81 0 104 8 21 8 37 1 49 -7 14 -6 19 4 19 8 0 19 -10 25
-22 10 -21 11 -22 11 -3 0 23 -44 59 -62 52 -8 -3 -14 4 -15 18 -1 21 1 22 43
17 l45 -5 -1 127 c0 69 -3 126 -6 126 -3 0 -19 -12 -36 -26 -73 -62 -216 -114
-313 -114 -131 0 -329 83 -424 179 -68 68 -133 205 -136 286 -1 28 -12 72 -24
99 -33 73 -24 146 31 253 24 47 46 78 50 72 5 -8 9 -7 15 4 12 21 63 10 75
-17 38 -81 42 -85 74 -71 19 9 24 14 13 14 -10 1 -18 5 -18 10 0 15 18 23 25
11 10 -17 25 -11 25 10 0 11 4 20 9 20 5 0 17 7 25 16 15 14 16 13 16 -15 0
-25 4 -31 23 -32 12 -1 38 -3 57 -4 19 -2 41 2 48 7 19 16 16 -44 -4 -68 -8
-10 -13 -13 -9 -6 3 6 0 12 -7 12 -10 0 -9 3 2 10 19 12 13 16 -32 24 -42 8
-46 2 -20 -27 16 -19 16 -20 -5 -9 -12 7 -24 17 -26 24 -4 9 -6 9 -7 -2 0 -10
-6 -6 -16 10 l-15 25 5 -33 c4 -20 2 -31 -4 -27 -6 3 -10 1 -10 -5 0 -7 -6
-10 -14 -7 -8 3 -20 -1 -26 -9 -9 -10 -9 -14 -1 -14 6 0 11 -7 11 -15 0 -17
26 -20 35 -5 5 8 12 7 22 -1 13 -11 14 -8 9 27 -4 26 -3 31 2 14 6 -19 14 -24
31 -22 18 3 22 0 18 -12 -4 -10 -1 -16 8 -16 13 0 13 -3 3 -20 -7 -11 -18 -20
-25 -20 -16 0 -16 -10 -3 -45 9 -23 8 -26 -5 -21 -8 3 -15 1 -15 -4 0 -6 -7
-10 -15 -10 -9 0 -15 -9 -15 -25 0 -31 -14 -32 -34 -3 -20 28 -33 16 -18 -17
7 -14 12 -34 12 -44 0 -11 29 -76 65 -145 l65 -127 -40 -59 -40 -60 27 -6 c16
-3 35 -8 43 -10 16 -4 17 4 23 141 1 41 -1 75 -6 75 -5 0 -6 7 -3 16 3 9 2 12
-5 9 -6 -4 -9 4 -7 22 2 22 -1 28 -14 27 -12 -1 -18 5 -18 21 0 43 21 80 58
104 20 14 56 40 79 59 24 18 47 31 52 28 14 -9 41 5 41 21 0 8 4 12 9 8 5 -3
12 -1 15 4 4 5 -3 12 -14 16 -35 11 -27 24 45 71 26 17 34 20 25 9 -14 -17
-13 -17 7 -6 13 6 22 15 20 20 -1 5 18 27 43 49 40 36 44 43 33 60 -10 16 -10
21 0 25 9 3 9 8 -1 20 -8 9 -11 21 -7 26 15 25 -22 -2 -40 -29 -11 -17 -23
-30 -26 -30 -13 0 -32 58 -34 103 -3 41 -20 90 -54 147 -5 8 -14 26 -20 41
-26 54 -133 28 -270 -66 -46 -32 -109 -70 -140 -85 -31 -15 -63 -35 -71 -44
-7 -10 -22 -21 -32 -27 -21 -11 27 65 61 95 28 26 117 181 157 276 29 66 37
78 76 97 76 38 112 39 179 4 33 -17 90 -54 128 -81 78 -57 76 -57 179 7 l52
33 0 75 0 75 -896 0 c-879 0 -896 0 -891 -19 6 -25 -36 -66 -88 -84 -22 -8
-40 -20 -40 -28 0 -8 -11 -16 -25 -17 -14 -2 -29 -8 -34 -13 -15 -13 34 -11
85 4 24 8 48 14 54 14 5 1 16 20 24 42 8 23 19 41 23 41 4 0 6 -6 4 -12 -3 -7
-7 -25 -10 -40 -4 -15 -17 -39 -30 -53 -23 -24 -39 -33 -34 -17 2 4 0 8 -4 10
-30 9 -82 -12 -63 -25 6 -5 12 -15 13 -23 2 -8 1 -12 -3 -9 -3 4 -21 3 -40 -1
-24 -5 -45 -2 -75 11 -39 17 -100 59 -87 59 3 0 0 19 -8 41 -8 23 -15 56 -15
75 0 18 -5 36 -10 39 -7 4 -10 -41 -9 -135 0 -78 -2 -144 -5 -148 -3 -3 1 -16
9 -29 23 -35 10 -28 -16 9 -13 17 -18 28 -11 24 9 -5 12 28 12 138 l0 146
-192 0 -192 0 -41 -37 -40 -38 34 38 c23 24 30 37 20 37 -8 0 -21 -6 -28 -12
-11 -10 -13 -10 -7 0 6 9 -30 12 -163 12 -134 0 -171 -3 -171 -13 0 -7 5 -18
11 -24 7 -7 1 -12 -21 -17 -18 -3 -82 -28 -143 -55 -105 -46 -168 -70 -157
-59 7 7 230 104 257 113 13 3 23 12 23 20 0 9 -25 3 -86 -22 -47 -19 -88 -33
-90 -30 -3 3 16 12 43 21 26 10 68 28 93 41 l45 24 -312 0 -313 0 0 -949z
m870 925 c-7 -9 -15 -13 -19 -10 -3 3 1 10 9 15 21 14 24 12 10 -5z m-14 -80
c8 -19 12 -35 9 -35 -7 0 -45 77 -45 92 1 16 15 -8 36 -57z m29 45 c-3 -5 -11
-10 -16 -10 -6 0 -7 5 -4 10 3 6 11 10 16 10 6 0 7 -4 4 -10z m-90 -63 l13
-38 -31 7 c-43 10 -82 6 -124 -11 -44 -19 -48 -19 -34 -1 9 11 9 15 -1 19 -7
3 -4 5 7 5 39 -2 56 2 50 12 -3 6 0 10 7 10 7 0 29 9 48 19 19 11 39 19 44 18
4 -2 14 -20 21 -40z m100 33 c-3 -5 -11 -10 -16 -10 -6 0 -7 5 -4 10 3 6 11
10 16 10 6 0 7 -4 4 -10z m20 -30 c-3 -5 -11 -10 -16 -10 -6 0 -7 5 -4 10 3 6
11 10 16 10 6 0 7 -4 4 -10z m-335 -74 c0 -2 -28 -20 -62 -39 -35 -19 -85 -47
-113 -63 -84 -46 -42 -15 62 46 93 55 113 65 113 56z m-144 -51 c-11 -8 -24
-15 -30 -15 -5 0 -1 7 10 15 10 8 24 14 29 14 6 0 1 -6 -9 -14z m-226 -99 c0
-2 -13 -9 -30 -15 -35 -12 -41 -5 -7 9 25 10 37 12 37 6z m2885 -116 c3 -5 -3
-10 -15 -10 -12 0 -19 -4 -16 -8 3 -5 -1 -9 -9 -9 -13 0 -12 4 2 19 18 20 29
23 38 8z m30 -19 c-3 -11 -1 -22 5 -26 6 -3 10 3 10 15 0 33 22 19 41 -28 14
-33 15 -42 5 -42 -8 0 -17 -15 -20 -33 -6 -30 -10 -34 -36 -32 -17 1 -30 -3
-30 -9 0 -8 -2 -8 -8 0 -4 6 -24 17 -44 23 -36 12 -49 33 -28 46 6 3 10 -3 10
-14 0 -12 4 -21 10 -21 5 0 7 13 3 31 l-6 31 27 -17 c28 -19 36 -6 11 19 -19
19 -19 30 0 22 16 -6 48 31 39 46 -3 4 0 8 6 8 7 0 9 -8 5 -19z m-1678 -13
c-3 -8 -6 -5 -6 6 -1 11 2 17 5 13 3 -3 4 -12 1 -19z m1296 -61 c-15 -19 -30
-32 -32 -30 -5 3 49 63 57 63 2 0 -9 -15 -25 -33z m-86 -139 c-3 -8 -6 -5 -6
6 -1 11 2 17 5 13 3 -3 4 -12 1 -19z m-16 -51 c-8 -8 -11 -7 -11 4 0 20 13 34
18 19 3 -7 -1 -17 -7 -23z m509 -36 c0 -6 -4 -13 -10 -16 -5 -3 -10 1 -10 9 0
9 5 16 10 16 6 0 10 -4 10 -9z m-2636 -46 c35 -17 169 -156 224 -234 41 -58
66 -140 59 -199 -4 -38 -13 -52 -55 -93 -28 -27 -53 -56 -55 -66 -2 -10 -3 -3
-1 15 3 31 2 32 -35 32 -47 0 -129 40 -178 89 -42 40 -136 155 -178 216 -42
62 -32 159 21 207 54 48 137 62 198 33z m2606 5 c0 -5 -5 -10 -11 -10 -5 0 -7
5 -4 10 3 6 8 10 11 10 2 0 4 -4 4 -10z m-2330 -540 c0 -5 -5 -10 -11 -10 -5
0 -7 5 -4 10 3 6 8 10 11 10 2 0 4 -4 4 -10z m2130 -98 c30 -17 91 -43 135
-58 67 -22 98 -27 190 -27 96 -1 118 3 179 26 37 15 71 27 74 27 8 0 -61 -65
-126 -118 -28 -24 -49 -49 -45 -54 3 -7 1 -8 -5 -4 -6 4 -33 -9 -59 -27 -95
-68 -134 -77 -268 -61 -47 6 -52 9 -70 46 -14 29 -20 64 -21 129 l-1 89 -52
46 c-67 61 -91 101 -30 52 24 -20 69 -49 99 -66z m-2040 43 c0 -15 -21 -12
-30 5 -11 20 -10 21 9 10 12 -6 21 -13 21 -15z m-10 -41 c0 -4 -11 3 -25 16
-14 13 -25 28 -25 34 0 6 11 -1 25 -16 14 -15 25 -30 25 -34z m-39 6 c26 -15
24 -29 -3 -23 -21 5 -22 4 -7 -11 9 -9 25 -18 37 -19 21 -1 20 -17 -2 -17 -20
0 -56 39 -56 60 0 23 4 24 31 10z m79 -2 c0 -7 -4 -19 -9 -27 -7 -10 -9 -7 -8
12 2 26 17 39 17 15z m2677 -7 c-1 -11 -6 -17 -14 -14 -7 3 -20 0 -29 -7 -12
-11 -12 -15 -2 -21 18 -12 30 -11 23 1 -7 11 8 14 18 4 10 -11 -12 -44 -30
-44 -9 0 -13 3 -10 6 4 4 -3 15 -14 25 -20 17 -20 18 18 43 45 31 42 30 40 7z
m-130 -121 c-1 -11 -7 -22 -15 -25 -7 -2 -10 0 -7 5 3 6 1 10 -6 10 -8 0 -8 4
1 15 17 21 29 19 27 -5z m-47 -24 c0 -2 -7 -9 -15 -16 -13 -11 -14 -10 -9 4 5
14 24 23 24 12z m-2324 -63 c-4 -4 -11 -1 -16 7 -16 25 -11 35 7 17 9 -9 13
-20 9 -24z m2279 18 c-8 -14 -25 -14 -25 0 0 5 5 7 10 4 6 -3 10 -1 10 6 0 7
3 10 6 6 3 -3 3 -10 -1 -16z m122 -3 c-3 -8 -6 -5 -6 6 -1 11 2 17 5 13 3 -3
4 -12 1 -19z m-25 -19 c-4 -28 -2 -30 17 -24 24 7 28 -7 6 -25 -10 -8 -13 -26
-10 -58 4 -56 -4 -122 -16 -122 -5 0 -9 13 -9 29 0 16 -5 31 -11 33 -7 2 -7
17 0 47 8 39 7 44 -10 48 -23 6 -24 11 -3 34 16 18 11 44 -7 34 -5 -4 -9 1 -9
9 0 13 15 22 46 25 6 1 9 -11 6 -30z m-62 17 c0 -3 -4 -8 -10 -11 -5 -3 -10
-1 -10 4 0 6 5 11 10 11 6 0 10 -2 10 -4z m-36 -102 c3 -8 2 -12 -4 -9 -6 3
-10 10 -10 16 0 14 7 11 14 -7z m-3004 -62 c0 -10 -7 -19 -15 -19 -8 0 -15 9
-15 19 0 10 7 18 15 18 8 0 15 -8 15 -18z m3007 -27 c-3 -21 -1 -35 6 -35 6 0
8 -3 4 -6 -3 -3 -14 -1 -24 5 -14 8 -14 10 -3 11 13 0 13 1 0 10 -10 6 -11 10
-2 10 6 0 12 9 12 20 0 11 3 20 6 20 3 0 4 -16 1 -35z m40 13 c-3 -8 -6 -5 -6
6 -1 11 2 17 5 13 3 -3 4 -12 1 -19z m30 -24 c-3 -3 -12 -4 -19 -1 -8 3 -5 6
6 6 11 1 17 -2 13 -5z m-2 -32 c-3 -3 -11 0 -18 7 -9 10 -8 11 6 5 10 -3 15
-9 12 -12z m2 -18 c-3 -3 -12 -4 -19 -1 -8 3 -5 6 6 6 11 1 17 -2 13 -5z
m-3077 -744 c0 -5 -5 -10 -11 -10 -5 0 -7 5 -4 10 3 6 8 10 11 10 2 0 4 -4 4
-10z m0 -60 c0 -5 -2 -10 -4 -10 -3 0 -8 5 -11 10 -3 6 -1 10 4 10 6 0 11 -4
11 -10z m0 -49 c0 -6 -4 -13 -10 -16 -5 -3 -10 1 -10 9 0 9 5 16 10 16 6 0 10
-4 10 -9z m-4 -68 c-10 -10 -19 5 -10 18 6 11 8 11 12 0 2 -7 1 -15 -2 -18z
m4 -43 c0 -5 -5 -10 -11 -10 -5 0 -7 5 -4 10 3 6 8 10 11 10 2 0 4 -4 4 -10z
m-4 -67 c-10 -10 -19 5 -10 18 6 11 8 11 12 0 2 -7 1 -15 -2 -18z m4 -48 c0
-8 -4 -15 -10 -15 -5 0 -10 7 -10 15 0 8 5 15 10 15 6 0 10 -7 10 -15z m284
-157 c20 -17 36 -38 36 -45 0 -7 4 -13 10 -13 12 0 30 -65 30 -110 0 -53 -23
-21 -25 35 0 25 -6 50 -13 57 -7 7 -12 19 -12 28 -1 21 -44 50 -80 53 -16 1
-30 8 -30 15 0 23 48 12 84 -20z m-319 -38 c-3 -5 -12 -10 -18 -10 -7 0 -6 4
3 10 19 12 23 12 15 0z m413 -46 c-3 -14 -5 -12 -10 9 -3 19 -2 25 4 19 6 -6
8 -18 6 -28z m-468 -14 c0 -5 8 -11 18 -11 16 -1 16 -2 0 -6 -20 -5 -23 -24
-7 -40 8 -8 -2 -12 -36 -15 -26 -2 -49 0 -51 4 -3 5 2 8 10 8 9 0 16 5 16 11
0 7 -9 9 -22 6 -22 -5 -22 -5 1 11 14 9 30 22 35 29 13 15 36 17 36 3z m2765
1 c3 -5 1 -12 -5 -16 -18 -11 1 -27 25 -21 14 4 43 -3 72 -16 l48 -22 -55 -6
c-92 -10 -150 -52 -169 -126 -12 -46 -9 -113 8 -141 12 -21 13 -3 2 37 -10 35
6 99 35 137 13 17 24 37 24 44 0 7 3 10 6 6 3 -3 14 3 25 14 30 30 134 27 190
-6 24 -14 37 -25 27 -25 -9 0 -18 -4 -20 -9 -2 -5 -21 -5 -43 -1 -39 8 -23 15
23 11 15 -1 21 2 17 8 -9 16 -98 13 -121 -4 -18 -14 -18 -14 4 -8 28 7 29 -3
1 -18 -16 -8 -23 -8 -29 1 -11 18 -76 -64 -91 -117 -9 -34 -10 -59 -2 -96 l10
-51 -21 25 c-12 13 -29 25 -37 27 -16 4 -38 26 -63 65 -10 15 -25 27 -33 27
-9 0 -11 5 -7 12 4 7 8 37 8 68 1 48 3 55 21 55 11 0 23 -4 26 -8 3 -4 18 8
33 28 24 31 25 36 10 42 -15 5 -15 7 0 15 9 5 14 14 10 20 -4 6 3 5 16 -2 16
-9 20 -9 15 0 -4 6 -8 22 -10 36 -2 19 2 24 21 24 12 0 25 -4 29 -9z m-2888
-56 c9 -24 -1 -27 -15 -5 -8 13 -8 20 -2 20 6 0 13 -7 17 -15z m510 -22 c4
-16 6 -53 2 -83 -3 -30 -7 -44 -8 -30 -1 23 -2 23 -12 6 -9 -14 -13 -15 -19
-5 -7 10 -16 10 -49 -1 -23 -7 -41 -17 -41 -22 0 -4 -11 -8 -25 -8 -14 0 -25
-4 -25 -10 0 -5 -5 -10 -11 -10 -6 0 -9 10 -8 23 2 12 -1 32 -5 45 -12 37 2
38 18 1 8 -20 15 -27 15 -16 1 9 9 17 19 18 11 1 8 4 -8 8 -24 7 -24 8 -4 15
12 3 26 6 30 4 20 -5 71 15 97 37 24 21 26 28 16 46 -6 12 -7 19 -1 15 6 -3
14 -18 19 -33z m-213 -33 l7 -25 -15 25 c-17 28 -21 50 -7 35 5 -6 12 -21 15
-35z m278 -62 c-10 -22 -11 -21 -11 12 -1 26 2 31 11 22 8 -8 8 -17 0 -34z
m2378 -8 c0 -5 -5 -10 -11 -10 -5 0 -7 5 -4 10 3 6 8 10 11 10 2 0 4 -4 4 -10z
m262 -54 c23 -14 23 -26 -1 -26 -28 0 -52 -11 -45 -21 9 -15 -7 -77 -21 -83
-10 -4 -11 2 -4 27 12 42 12 67 0 48 -7 -10 -12 -8 -25 10 -9 13 -16 29 -16
36 0 32 67 37 112 9z m-2715 -8 c-3 -8 -6 -5 -6 6 -1 11 2 17 5 13 3 -3 4 -12
1 -19z m569 -26 c-17 -16 -18 -16 -5 5 7 12 15 20 18 17 3 -2 -3 -12 -13 -22z
m1838 -87 c3 -9 2 -13 -4 -10 -20 13 -9 -13 17 -39 26 -26 41 -66 25 -66 -4 0
-22 19 -40 42 -26 34 -32 50 -32 92 0 28 3 62 7 76 6 21 9 16 14 -27 4 -29 9
-60 13 -68z m-2423 72 c-10 -9 -11 -8 -5 6 3 10 9 15 12 12 3 -3 0 -11 -7 -18z
m2469 3 c11 -6 31 -21 46 -35 14 -13 35 -27 46 -31 17 -5 18 -12 13 -45 -4
-21 -3 -39 1 -39 4 0 23 12 43 26 l36 26 -35 -32 c-19 -17 -41 -35 -48 -41 -9
-8 -10 -15 0 -32 10 -20 10 -21 -6 -8 -10 9 -14 21 -10 33 5 16 2 19 -13 16
-13 -3 -28 10 -51 44 -18 26 -36 48 -41 48 -9 0 -31 45 -31 65 0 17 23 19 50
5z m-1875 -99 c9 -29 14 -56 11 -59 -7 -7 -45 77 -47 103 -1 21 -19 -44 -22
-82 -1 -12 -5 -19 -8 -15 -10 12 -19 72 -11 72 5 0 16 17 26 38 21 42 21 42
51 -57z m-614 56 c-10 -9 -11 -8 -5 6 3 10 9 15 12 12 3 -3 0 -11 -7 -18z
m683 -3 c9 -33 -2 -45 -18 -21 -15 19 -31 24 -20 5 4 -7 3 -8 -4 -4 -7 4 -12
16 -12 27 0 31 46 26 54 -7z m2048 -12 c-7 -2 -12 -12 -12 -23 0 -10 -5 -19
-11 -19 -12 0 -3 37 14 59 9 11 12 11 16 0 2 -7 -1 -15 -7 -17z m-2882 14 c0
-3 -4 -8 -10 -11 -5 -3 -10 -1 -10 4 0 6 5 11 10 11 6 0 10 -2 10 -4z m2950
-65 c-6 -22 -16 -43 -22 -47 -6 -4 -8 -1 -5 7 3 8 11 31 18 52 16 49 23 40 9
-12z m-2252 -93 c15 -37 9 -35 -16 4 l-21 32 -5 -24 c-13 -61 -15 -61 -12 -3
1 35 8 69 17 79 13 16 15 14 20 -22 3 -21 11 -51 17 -66z m2206 7 c-4 -9 -16
-21 -28 -27 -19 -10 -19 -9 3 16 28 30 33 32 25 11z m-2174 -25 c6 -11 8 -20
6 -20 -3 0 -10 9 -16 20 -6 11 -8 20 -6 20 3 0 10 -9 16 -20z m2044 -82 c21
-15 35 -28 30 -28 -15 1 -48 23 -90 59 -31 27 -33 30 -9 16 17 -10 48 -31 69
-47z m106 -43 c23 -8 57 -15 74 -16 l31 -1 -35 -9 c-43 -11 -77 -4 -110 21
-30 24 -17 25 40 5z m-2400 -570 c0 -9 -9 -15 -22 -14 -17 1 -19 2 -5 6 9 2
17 9 17 14 0 5 2 9 5 9 3 0 5 -7 5 -15z"/>
<path d="M3137 3913 c-4 -3 -7 -11 -7 -17 0 -6 5 -5 12 2 6 6 9 14 7 17 -3 3
-9 2 -12 -2z"/>
<path d="M3035 1089 c-4 -6 -5 -12 -2 -15 2 -3 7 2 10 11 7 17 1 20 -8 4z"/>
<path d="M1605 4491 c-10 -17 9 -19 45 -5 l35 12 -37 1 c-20 1 -39 -3 -43 -8z"/>
<path d="M1745 4492 c-16 -14 -89 -32 -129 -32 -20 0 -36 -4 -36 -10 0 -13 75
-13 122 0 42 12 93 49 68 50 -9 0 -20 -4 -25 -8z"/>
<path d="M1703 4435 c-18 -8 -33 -19 -33 -25 0 -12 0 -12 39 1 17 6 31 17 31
25 0 17 3 17 -37 -1z"/>
<path d="M1508 4387 c14 -17 97 -63 88 -49 -3 6 -27 22 -52 36 -26 14 -42 20
-36 13z"/>
<path d="M3564 4105 c37 -64 36 -63 36 -27 0 23 -8 36 -32 54 l-33 23 29 -50z"/>
<path d="M1580 3996 c0 -2 8 -10 18 -17 15 -13 16 -12 3 4 -13 16 -21 21 -21
13z"/>
<path d="M2976 3845 c4 -8 8 -15 10 -15 2 0 4 7 4 15 0 8 -4 15 -10 15 -5 0
-7 -7 -4 -15z"/>
<path d="M1636 3785 c-9 -9 -16 -24 -16 -33 0 -24 37 -82 52 -82 7 -1 -3 -15
-22 -31 l-35 -31 33 4 c25 4 37 0 48 -16 19 -28 18 -51 -3 -53 -10 0 -29 -4
-43 -8 -31 -9 -69 -9 -78 0 -4 3 1 19 10 35 16 27 16 29 -1 35 -13 4 -17 15
-17 47 1 34 -3 43 -18 46 -23 5 -36 -14 -36 -55 0 -18 -9 -50 -21 -72 -13 -25
-20 -55 -18 -78 2 -21 0 -43 -4 -49 -10 -17 3 -24 24 -14 19 10 49 4 49 -11 0
-4 -5 -31 -11 -59 -11 -51 -29 -68 -29 -27 0 13 -6 32 -14 43 -14 18 -15 18
-21 2 -4 -10 -5 -24 -2 -31 3 -8 2 -19 -2 -26 -6 -9 -15 -4 -33 17 l-25 29
-19 -28 c-10 -16 -26 -29 -35 -29 -22 0 -46 -29 -53 -66 -8 -34 3 -48 46 -59
22 -6 32 -1 53 20 l25 28 0 -29 c0 -60 59 -104 130 -98 24 1 38 -3 47 -16 9
-13 29 -19 67 -22 30 -1 53 -1 51 1 -6 5 17 26 38 34 9 3 29 2 43 -3 36 -14
78 28 72 71 -4 26 -2 30 15 25 28 -7 70 38 61 67 -3 12 -10 26 -15 31 -4 5 5
21 22 36 37 35 40 87 7 117 -30 27 -64 34 -79 17 -14 -16 -29 -18 -29 -4 0 6
-10 24 -22 41 -20 27 -26 29 -60 24 -43 -8 -47 -1 -18 30 32 34 32 60 0 84
-16 11 -35 21 -42 21 -7 0 -2 7 10 16 30 20 28 53 -6 89 -32 36 -54 41 -76 20z
m104 -166 c0 -5 4 -8 9 -5 14 9 20 -18 6 -30 -9 -9 -14 -5 -22 17 -6 16 -7 29
-2 29 5 0 9 -5 9 -11z m-13 -61 c-3 -7 -5 -2 -5 12 0 14 2 19 5 13 2 -7 2 -19
0 -25z m-37 -48 c0 -11 -7 -20 -15 -20 -17 0 -18 2 -9 24 9 23 24 20 24 -4z
m113 -67 c7 -40 -12 -83 -36 -83 -7 0 -18 18 -24 40 -8 32 -8 40 3 40 17 0 19
20 2 21 -14 0 20 17 38 18 6 1 14 -16 17 -36z m-115 -18 c3 -11 1 -17 -3 -13
-4 4 -16 3 -26 -2 -9 -6 -25 -7 -34 -4 -14 6 -14 8 2 26 21 24 57 20 61 -7z
m-108 -60 c0 -8 -2 -15 -4 -15 -2 0 -6 7 -10 15 -3 8 -1 15 4 15 6 0 10 -7 10
-15z m60 1 c0 -3 -4 -8 -10 -11 -5 -3 -10 -1 -10 4 0 6 5 11 10 11 6 0 10 -2
10 -4z m108 -38 c-16 -24 -39 -30 -45 -12 -2 6 7 16 19 22 35 17 42 14 26 -10z
m76 -12 c-8 -20 14 -30 31 -16 12 10 15 9 15 -6 0 -23 -39 -89 -47 -80 -4 4
-1 12 5 18 7 7 12 21 12 31 0 16 -5 13 -22 -13 -13 -18 -30 -35 -38 -36 -8 -2
-26 -6 -40 -9 -14 -4 -20 -3 -14 2 7 4 14 25 17 46 6 44 4 41 42 61 37 20 46
20 39 2z m-154 -16 c0 -5 -7 -7 -16 -3 -8 3 0 -12 20 -33 33 -36 34 -40 19
-56 -28 -32 -94 -17 -137 31 -18 20 -18 21 8 31 15 5 33 10 40 10 8 0 19 7 26
15 14 17 40 20 40 5z m-290 -73 c0 -16 -6 -23 -20 -23 -13 0 -16 4 -10 10 6 6
10 18 10 29 0 10 5 15 10 12 6 -3 10 -16 10 -28z m333 -97 c3 -13 0 -20 -9
-20 -8 0 -14 9 -14 20 0 11 4 20 9 20 5 0 11 -9 14 -20z"/>
<path d="M2764 3779 c2 -8 7 -26 10 -41 5 -21 12 -28 29 -27 12 0 17 3 10 5
-7 3 -10 11 -8 17 5 14 -2 26 -28 46 -15 12 -17 12 -13 0z"/>
<path d="M2883 3773 c-18 -7 -16 -43 2 -43 9 0 15 9 15 25 0 14 -1 25 -2 24
-2 0 -9 -3 -15 -6z"/>
<path d="M2999 3645 c-3 -2 -16 -6 -30 -8 -27 -4 -38 -35 -17 -48 17 -11 20
-11 39 4 19 14 35 57 21 57 -5 0 -11 -2 -13 -5z"/>
<path d="M1840 3555 c7 -8 19 -15 27 -15 8 0 12 -4 9 -8 -2 -4 -1 -14 5 -22 7
-12 9 -12 9 3 0 30 -19 57 -42 57 -17 0 -18 -2 -8 -15z"/>
<path d="M2859 3549 c-4 -63 -7 -76 -27 -109 -38 -61 -24 -65 17 -4 35 52 38
60 29 93 -13 45 -18 51 -19 20z"/>
<path d="M2545 3510 c3 -5 11 -10 16 -10 6 0 7 5 4 10 -3 6 -11 10 -16 10 -6
0 -7 -4 -4 -10z"/>
<path d="M3320 3504 c0 -8 5 -12 10 -9 6 4 8 11 5 16 -9 14 -15 11 -15 -7z"/>
<path d="M2580 3488 c0 -7 12 -19 27 -25 l26 -13 -23 25 c-27 29 -30 30 -30
13z"/>
<path d="M3450 3367 c-72 -65 -116 -100 -137 -110 -16 -7 -23 -19 -23 -38 l0
-27 97 34 c53 19 104 41 113 49 9 8 19 12 23 9 3 -4 4 5 1 20 -3 21 -1 24 13
19 11 -4 5 9 -17 33 -19 21 -35 40 -35 41 0 1 -16 -13 -35 -30z"/>
<path d="M2830 3332 c6 -13 14 -21 18 -18 3 4 -2 14 -12 24 -18 16 -18 16 -6
-6z"/>
<path d="M2850 3296 c0 -2 7 -9 15 -16 13 -11 14 -10 9 4 -5 14 -24 23 -24 12z"/>
<path d="M2886 3245 c4 -8 11 -15 16 -15 6 0 5 6 -2 15 -7 8 -14 15 -16 15 -2
0 -1 -7 2 -15z"/>
<path d="M2914 3203 c3 -10 8 -30 12 -45 4 -17 13 -28 23 -28 9 0 23 -6 30
-12 17 -16 9 -2 -33 60 -31 45 -40 53 -32 25z"/>
<path d="M3181 3132 c-29 -20 -48 -38 -42 -40 14 -5 111 56 111 69 0 15 -12
10 -69 -29z"/>
<path d="M3560 2702 c0 -45 22 -83 35 -62 5 9 4 15 -3 18 -7 2 -12 21 -12 43
0 21 -4 39 -10 39 -5 0 -10 -17 -10 -38z"/>
<path d="M590 2610 c8 -5 20 -10 25 -10 6 0 3 5 -5 10 -8 5 -19 10 -25 10 -5
0 -3 -5 5 -10z"/>
<path d="M3570 2592 c0 -5 7 -13 16 -16 10 -4 14 -1 12 6 -5 15 -28 23 -28 10z"/>
<path d="M337 2528 c4 -7 6 -25 4 -41 -2 -26 21 -48 36 -33 11 10 -19 86 -34
86 -9 0 -11 -5 -6 -12z"/>
<path d="M1570 2517 c-17 -4 -33 -14 -37 -22 -3 -9 -18 -15 -34 -15 -51 0 -99
-26 -99 -53 0 -14 -7 -30 -15 -37 -10 -8 -15 -30 -15 -63 0 -66 -15 -108 -66
-186 -40 -62 -41 -64 -23 -82 23 -23 25 -49 4 -49 -17 0 -20 -61 -6 -122 5
-22 5 -38 0 -38 -5 0 -9 -14 -9 -30 0 -28 2 -30 20 -20 18 10 20 8 20 -25 0
-22 4 -34 10 -30 6 3 10 2 10 -4 0 -5 14 -22 30 -38 17 -15 30 -36 30 -45 0
-9 12 -25 27 -35 14 -10 41 -33 59 -50 18 -18 38 -33 44 -33 6 0 14 -10 19
-23 5 -12 21 -29 36 -37 15 -8 42 -28 59 -45 37 -35 140 -65 193 -58 29 5 33
9 39 49 4 29 11 44 21 44 8 0 12 -4 9 -8 -2 -4 6 -8 20 -8 13 0 24 6 24 13 0
7 -7 10 -17 7 -15 -5 -16 -4 -3 5 8 7 24 17 35 23 18 10 18 9 7 -4 -8 -10 -9
-19 -3 -22 14 -9 95 62 96 85 2 27 15 37 15 11 0 -22 1 -21 31 5 36 33 64 87
55 109 -5 12 -2 15 10 10 13 -5 15 -1 12 19 -3 14 -1 25 5 25 7 0 7 4 0 11 -9
9 -8 16 4 27 14 14 14 17 -3 23 -17 7 -17 8 -1 8 11 1 17 9 17 25 0 13 5 26
12 28 7 3 6 7 -5 11 -12 4 -17 1 -17 -9 0 -12 -7 -15 -24 -12 -15 3 -23 1 -21
-6 2 -6 6 -37 9 -68 6 -56 5 -58 -16 -57 -17 1 -19 2 -5 6 25 6 21 20 -8 27
-30 8 -33 32 -5 41 15 5 19 14 17 38 -1 20 3 32 11 32 28 0 9 20 -21 20 -24 0
-32 5 -34 20 -2 11 0 14 3 8 9 -21 21 -15 34 18 9 22 15 27 21 17 5 -7 6 -20
4 -29 -3 -9 2 -22 10 -29 13 -11 18 -10 29 6 10 13 11 21 4 25 -6 4 -8 20 -5
37 3 17 2 33 -4 36 -5 2 -4 3 3 2 12 -3 38 17 38 28 0 3 -6 6 -14 6 -9 0 -12
7 -9 19 7 27 -26 91 -47 91 -23 0 -87 -27 -95 -40 -8 -13 47 -1 56 12 9 14 50
18 47 5 -1 -7 4 -22 11 -35 10 -20 10 -27 -3 -48 -9 -13 -27 -26 -41 -30 -21
-5 -23 -9 -14 -26 28 -52 -25 -58 -156 -17 -132 42 -185 68 -199 99 -6 14 -16
28 -22 32 -7 5 -10 17 -7 28 6 24 2 23 46 5 45 -19 76 -20 59 -3 -21 21 -13
29 24 22 l36 -7 -4 39 c-2 32 0 39 17 43 20 3 35 18 35 35 0 4 -7 6 -15 2 -20
-7 -19 0 4 23 13 13 22 16 29 9 6 -6 16 -7 22 -3 9 6 8 11 -6 19 -11 6 -19 18
-19 26 0 19 -35 26 -45 9 -7 -10 -15 -9 -42 1 -18 8 -35 16 -38 20 -3 3 -24
20 -47 38 -24 19 -42 36 -41 40 1 4 -4 20 -11 36 -6 16 -10 35 -7 41 5 14
-113 15 -164 2z m32 -39 c-8 -8 -9 -4 -5 13 4 13 8 18 11 10 2 -7 -1 -18 -6
-23z m39 -51 c37 -28 50 -85 25 -106 -10 -9 -20 -3 -45 26 -51 59 -35 122 20
80z m-101 -101 c0 -15 -18 -31 -26 -23 -7 7 7 37 17 37 5 0 9 -6 9 -14z m347
-11 c11 -7 -24 -79 -47 -99 -17 -13 -30 -29 -30 -34 0 -5 -7 -15 -15 -22 -13
-11 -15 -8 -15 20 0 24 -4 31 -15 26 -14 -5 -20 10 -16 42 1 7 -2 11 -6 10 -4
-2 -9 0 -10 5 -6 16 -2 27 8 27 6 0 19 10 29 23 17 20 21 21 41 9 19 -12 21
-12 16 1 -5 13 -1 14 26 5 18 -6 33 -12 34 -13z m-193 -17 c-11 -17 -12 -118
-2 -112 17 11 8 -69 -9 -83 -12 -10 -13 -12 -3 -8 8 4 6 -1 -4 -9 -11 -9 -20
-25 -21 -37 -2 -22 -23 -41 -37 -33 -4 3 -8 -2 -8 -10 0 -21 -26 -21 -34 0 -4
10 -13 13 -26 9 -12 -4 -20 -2 -20 5 0 7 14 10 34 9 43 -4 51 3 34 30 -8 14
-20 20 -32 17 -25 -7 -46 10 -46 37 0 11 -8 29 -17 39 -15 17 -15 19 3 32 20
15 27 66 9 67 -5 0 -1 4 10 9 23 9 53 5 108 -16 l37 -14 0 33 c0 18 5 38 12
45 15 15 23 8 12 -10z m-4 -322 c0 -3 -4 -8 -10 -11 -5 -3 -10 -1 -10 4 0 6 5
11 10 11 6 0 10 -2 10 -4z m-37 -47 c10 -10 30 -25 46 -34 50 -26 49 -104 -3
-169 -11 -14 -28 -19 -60 -18 -56 0 -66 7 -66 40 0 15 -2 42 -4 60 -3 27 1 36
21 49 24 16 24 17 7 30 -10 7 -14 13 -10 13 5 0 3 7 -4 15 -9 10 -9 15 -1 15
6 0 11 7 11 16 0 20 37 10 63 -17z m188 8 c-10 -9 -11 -8 -5 6 3 10 9 15 12
12 3 -3 0 -11 -7 -18z m234 -26 c3 -5 1 -12 -5 -16 -5 -3 -10 1 -10 9 0 18 6
21 15 7z m45 -89 c0 -4 -9 -13 -20 -19 -14 -9 -21 -10 -26 -1 -4 6 -3 8 4 4 6
-3 13 3 17 14 6 18 25 20 25 2z m-10 -83 c0 -5 -7 -9 -15 -9 -8 0 -15 7 -15
15 0 9 6 12 15 9 8 -4 15 -10 15 -15z m-213 -181 c-3 -8 -6 -5 -6 6 -1 11 2
17 5 13 3 -3 4 -12 1 -19z m-7 -38 c0 -5 -5 -10 -11 -10 -5 0 -7 5 -4 10 3 6
8 10 11 10 2 0 4 -4 4 -10z m-35 -30 c-3 -5 -11 -10 -16 -10 -6 0 -7 5 -4 10
3 6 11 10 16 10 6 0 7 -4 4 -10z"/>
<path d="M1835 2290 c-3 -5 1 -10 9 -10 9 0 16 5 16 10 0 6 -4 10 -9 10 -6 0
-13 -4 -16 -10z"/>
<path d="M1671 1856 c-8 -9 -11 -19 -7 -23 9 -9 29 13 24 27 -2 8 -8 7 -17 -4z"/>
<path d="M1691 1831 c-8 -11 -20 -17 -26 -15 -7 3 -14 -5 -17 -19 -4 -21 0
-26 25 -31 37 -8 46 -1 18 13 -20 11 -20 12 -1 31 11 11 25 20 31 20 5 0 7 5
4 10 -9 15 -19 12 -34 -9z"/>
<path d="M316 2493 c-6 -14 -5 -15 5 -6 7 7 10 15 7 18 -3 3 -9 -2 -12 -12z"/>
<path d="M1860 2491 c0 -12 58 -71 70 -71 18 0 11 26 -12 47 -26 23 -58 36
-58 24z"/>
<path d="M2038 2453 c6 -2 18 -2 25 0 6 3 1 5 -13 5 -14 0 -19 -2 -12 -5z"/>
<path d="M1980 2439 c0 -5 5 -7 10 -4 6 3 10 8 10 11 0 2 -4 4 -10 4 -5 0 -10
-5 -10 -11z"/>
<path d="M868 2423 c7 -3 16 -2 19 1 4 3 -2 6 -13 5 -11 0 -14 -3 -6 -6z"/>
<path d="M2053 2400 c4 -27 23 -45 31 -31 4 6 2 11 -5 11 -9 0 -9 3 0 14 9 11
8 15 -5 20 -23 9 -24 8 -21 -14z"/>
<path d="M1177 2379 c7 -7 15 -10 18 -7 3 3 -2 9 -12 12 -14 6 -15 5 -6 -5z"/>
<path d="M855 2371 c6 -11 45 -10 45 1 0 4 -12 8 -26 8 -14 0 -23 -4 -19 -9z"/>
<path d="M670 2366 c0 -2 8 -10 18 -17 15 -13 16 -12 3 4 -13 16 -21 21 -21
13z"/>
<path d="M2002 2338 c3 -7 13 -15 24 -17 16 -3 17 -1 5 13 -16 19 -34 21 -29
4z"/>
<path d="M730 2315 c13 -14 26 -25 28 -25 3 0 -5 11 -18 25 -13 14 -26 25 -28
25 -3 0 5 -11 18 -25z"/>
<path d="M878 2333 c-24 -6 -23 -33 1 -33 23 0 38 18 25 29 -5 4 -17 6 -26 4z"/>
<path d="M2192 2301 c-1 -30 28 -51 68 -51 10 0 24 -8 30 -17 10 -17 10 -16 8
2 -2 11 -13 24 -26 30 -12 5 -22 15 -22 22 0 7 -7 13 -15 13 -8 0 -15 7 -15
15 0 29 -27 15 -28 -14z"/>
<path d="M2007 2286 c-12 -30 4 -56 33 -56 22 0 30 -5 33 -22 3 -19 5 -20 11
-7 9 21 -20 93 -34 84 -5 -3 -10 -1 -10 4 0 16 -27 13 -33 -3z"/>
<path d="M788 2266 c15 -19 20 -36 16 -50 -5 -17 -4 -19 6 -9 10 9 27 -2 81
-54 38 -37 76 -71 86 -76 9 -6 -12 17 -48 51 -39 38 -58 61 -48 62 10 0 19 12
23 31 11 59 8 69 -21 68 l-28 -1 25 -8 c17 -5 19 -8 8 -9 -10 -1 -18 -5 -18
-10 0 -5 8 -12 18 -14 16 -4 16 -5 0 -6 -10 0 -18 -6 -18 -11 0 -11 -40 11
-79 44 l-25 21 22 -29z"/>
<path d="M2154 2241 c4 -44 37 -121 52 -121 3 0 18 7 34 15 32 17 40 35 15 35
-8 0 -15 -8 -15 -17 0 -14 -2 -15 -12 -4 -11 10 -10 15 5 25 24 19 21 37 -5
33 -13 -2 -17 -2 -10 0 21 7 13 25 -8 18 -12 -4 -20 -2 -20 5 0 6 -5 8 -12 4
-7 -4 -8 -3 -4 5 4 6 12 9 17 6 21 -13 6 11 -17 28 l-25 19 5 -51z m46 -71 c0
-5 -2 -10 -4 -10 -3 0 -8 5 -11 10 -3 6 -1 10 4 10 6 0 11 -4 11 -10z"/>
<path d="M2265 2219 c-4 -6 -5 -12 -2 -15 2 -3 7 2 10 11 7 17 1 20 -8 4z"/>
<path d="M1945 2202 c-8 -21 -7 -22 20 -22 19 0 23 -4 18 -17 -6 -16 -5 -16
10 -4 27 22 21 48 -13 53 -19 3 -31 0 -35 -10z"/>
<path d="M1924 2145 c-16 -18 -19 -26 -10 -35 8 -9 7 -11 -4 -8 -8 2 -18 7
-21 12 -4 5 -12 5 -18 2 -8 -5 -7 -11 3 -21 8 -8 12 -23 9 -34 -4 -15 0 -19
13 -17 11 2 19 11 19 22 0 10 5 18 10 17 35 -9 116 -42 130 -53 8 -7 18 -11
21 -8 6 7 -70 68 -85 68 -6 0 -11 5 -11 10 0 6 7 10 15 10 25 0 17 17 -11 24
-17 5 -24 12 -20 21 8 22 -16 16 -40 -10z"/>
<path d="M2235 2110 c3 -5 10 -10 16 -10 5 0 9 5 9 10 0 6 -7 10 -16 10 -8 0
-12 -4 -9 -10z"/>
<path d="M824 2056 c-19 -19 -37 -30 -40 -25 -3 5 -11 9 -17 9 -7 0 -2 -8 9
-18 12 -9 27 -27 33 -39 7 -13 18 -23 26 -23 18 0 20 16 3 26 -7 5 -4 10 10
15 18 7 22 16 22 49 0 22 -3 40 -6 40 -3 0 -21 -15 -40 -34z"/>
<path d="M2200 1890 c0 -5 5 -10 10 -10 6 0 10 5 10 10 0 6 -4 10 -10 10 -5 0
-10 -4 -10 -10z"/>
<path d="M2116 1781 c-3 -5 1 -11 9 -15 9 -3 15 0 15 9 0 16 -16 20 -24 6z"/>
<path d="M440 1380 c36 -11 52 -11 45 0 -3 6 -21 10 -38 9 -31 -1 -31 -1 -7
-9z"/>
<path d="M375 1370 c3 -5 8 -10 11 -10 2 0 4 5 4 10 0 6 -5 10 -11 10 -5 0 -7
-4 -4 -10z"/>
<path d="M138 1293 c-10 -2 -18 -8 -18 -13 0 -4 9 -6 20 -3 11 3 20 9 20 14 0
5 -1 8 -2 8 -2 -1 -11 -3 -20 -6z"/>
<path d="M96 1108 c-6 -19 -4 -48 4 -48 4 0 7 14 8 30 1 31 -6 40 -12 18z"/>
<path d="M85 1010 c-3 -5 -1 -10 4 -10 6 0 11 5 11 10 0 6 -2 10 -4 10 -3 0
-8 -4 -11 -10z"/>
<path d="M93 968 c-16 -26 -12 -39 10 -33 22 6 22 6 3 -10 -19 -15 -19 -15 5
-13 21 2 25 6 21 25 -4 19 -9 22 -26 17 -18 -6 -19 -5 -7 10 7 9 11 16 8 16
-3 0 -9 -6 -14 -12z"/>
<path d="M2582 753 c2 -9 11 -17 20 -19 14 -2 15 1 5 17 -15 23 -30 25 -25 2z"/>
<path d="M2581 624 c0 -11 3 -14 6 -6 3 7 2 16 -1 19 -3 4 -6 -2 -5 -13z"/>
<path d="M2595 485 c3 -22 5 -51 5 -65 0 -20 2 -22 10 -10 6 10 10 11 10 3 0
-7 5 -13 10 -13 6 0 3 15 -6 33 -10 17 -21 46 -25 62 -7 25 -8 24 -4 -10z"/>
<path d="M3077 469 c8 -16 18 -28 21 -25 7 7 -18 56 -29 56 -4 0 -1 -14 8 -31z"/>
<path d="M269 353 l-24 -28 28 24 c25 23 32 31 24 31 -2 0 -14 -12 -28 -27z"/>
<path d="M178 260 c-14 -16 -23 -32 -20 -35 3 -3 0 -5 -5 -5 -13 0 -88 -129
-80 -137 3 -2 8 5 12 16 3 12 11 21 16 21 5 0 9 5 9 10 0 6 5 16 10 23 22 26
100 130 100 133 0 12 -19 0 -42 -26z"/>
<path d="M3 35 c0 -22 2 -30 4 -17 2 12 2 30 0 40 -3 9 -5 -1 -4 -23z"/>
</g>
</svg>
