<?xml version="1.0" standalone="no"?>
<!DOCTYPE svg PUBLIC "-//W3C//DTD SVG 20010904//EN"
 "http://www.w3.org/TR/2001/REC-SVG-20010904/DTD/svg10.dtd">
<svg version="1.0" xmlns="http://www.w3.org/2000/svg"
 width="360.000000pt" height="240.000000pt" viewBox="0 0 360.000000 240.000000"
 preserveAspectRatio="xMidYMid meet">

<g transform="translate(0.000000,240.000000) scale(0.100000,-0.100000)"
fill="#000000" stroke="none">
<path d="M111 2338 c1 -72 5 -68 12 10 2 28 0 52 -4 52 -5 0 -9 -28 -8 -62z"/>
<path d="M264 2353 c1 -43 -2 -49 -29 -63 -30 -15 -29 -15 49 -18 63 -2 90 1
127 18 26 11 57 20 69 20 12 0 43 9 69 21 42 17 47 23 43 45 l-4 24 -162 0
-162 0 0 -47z m83 -9 c-3 -3 -12 -4 -19 -1 -8 3 -5 6 6 6 11 1 17 -2 13 -5z"/>
<path d="M740 2394 c0 -12 34 -33 53 -34 34 0 45 -21 29 -54 -20 -41 -22 -43
-31 -28 -5 9 -17 4 -41 -18 -18 -16 -36 -27 -40 -25 -5 3 -17 -3 -29 -13 -16
-12 -25 -39 -36 -99 -12 -71 -13 -188 -1 -200 4 -4 7 -4 96 -5 30 0 89 -1 130
-2 72 -1 75 0 75 22 0 12 -4 22 -9 21 -16 -1 -26 26 -20 57 3 17 0 66 -6 110
-23 156 -27 214 -13 214 7 0 13 -9 13 -20 0 -11 5 -20 10 -20 6 0 10 -18 10
-39 l0 -39 35 8 c20 4 35 4 35 -1 0 -5 4 -9 9 -9 17 0 5 56 -17 78 -12 12 -26
22 -31 22 -5 0 -14 7 -21 15 -11 13 -8 15 14 16 14 1 34 2 43 3 17 1 22 -11
43 -92 7 -28 15 -40 23 -36 9 5 9 4 1 -5 -8 -8 -7 -30 2 -79 7 -37 13 -109 14
-159 0 -85 2 -93 19 -93 19 0 20 6 14 158 -3 86 -9 159 -14 160 -14 5 -11 31
11 100 11 35 20 70 20 78 0 12 -34 14 -195 14 -107 0 -195 -3 -195 -6z m6
-201 c-10 -26 -18 -8 -9 23 5 21 8 24 11 11 2 -10 1 -25 -2 -34z m-45 -133
c-10 -25 -10 -24 -10 6 -1 17 2 47 7 65 l7 34 3 -40 c2 -23 -1 -52 -7 -65z
m132 18 c7 -48 -8 -69 -17 -25 -12 59 -14 85 -9 91 10 10 20 -14 26 -66z m-69
-54 c-3 -13 -10 -21 -15 -18 -11 6 -12 45 -2 70 6 15 7 15 15 -5 4 -13 5 -33
2 -47z m-94 -28 c0 -2 -7 -6 -15 -10 -8 -3 -15 -1 -15 4 0 6 7 10 15 10 8 0
15 -2 15 -4z m213 -29 c-3 -5 -9 -3 -14 4 -4 7 -5 17 -2 22 3 5 9 3 14 -4 4
-7 5 -17 2 -22z m-126 1 c-3 -8 -6 -5 -6 6 -1 11 2 17 5 13 3 -3 4 -12 1 -19z"/>
<path d="M1162 2321 c-25 -91 -26 -102 -9 -98 8 1 14 -22 17 -80 8 -111 20
-117 20 -10 0 77 10 111 27 94 4 -5 22 -332 23 -439 0 -36 4 -48 15 -48 13 0
15 13 13 78 l-3 77 28 3 c25 3 26 1 18 -20 -5 -13 -5 -33 0 -45 4 -12 4 -34 0
-50 -4 -15 -3 -45 2 -66 7 -27 6 -41 -4 -53 -11 -14 -10 -15 11 -12 26 3 29
14 16 60 -5 17 -3 34 7 50 8 13 13 38 10 58 -10 86 -10 85 16 82 l24 -4 -4
153 c-3 108 -1 153 7 156 8 3 14 -26 19 -89 4 -51 11 -124 16 -162 13 -96 13
-326 0 -339 -7 -7 -11 -75 -11 -180 l0 -169 43 7 c23 3 57 11 74 16 18 6 37 8
42 5 20 -12 58 13 64 41 7 38 -5 48 -42 35 -27 -10 -32 -8 -42 11 -7 11 -13
36 -14 55 -1 18 -7 38 -13 44 -7 7 -12 22 -12 34 0 12 -5 24 -11 26 -9 3 -9
21 0 71 6 37 9 72 6 77 -3 5 -7 37 -8 70 -3 66 8 86 43 77 23 -6 25 7 10 48
-7 18 -7 33 1 47 9 17 8 24 -5 34 -11 8 -13 14 -6 19 7 4 10 44 9 108 -1 112
2 130 37 230 13 38 24 70 24 73 0 2 -98 4 -218 4 l-219 0 -21 -79z m348 -111
c0 -5 -4 -10 -10 -10 -5 0 -10 5 -10 10 0 6 5 10 10 10 6 0 10 -4 10 -10z
m-193 -157 c0 -109 -2 -134 -7 -93 -11 76 -12 252 -2 246 5 -3 9 -72 9 -153z"/>
<path d="M1706 2378 c-17 -24 -21 -54 -8 -61 4 -2 2 -3 -4 -1 -6 1 -15 -15
-21 -37 -8 -30 -7 -39 4 -43 9 -4 12 -15 8 -33 -16 -74 -16 -73 5 -73 11 0 20
6 20 14 0 7 9 16 20 19 14 3 20 14 20 31 0 50 31 27 32 -24 1 -17 5 -30 10
-30 4 0 8 -8 8 -17 1 -17 1 -17 10 -1 10 17 9 40 -5 71 -4 10 -3 23 2 28 7 7
6 23 -3 47 -18 51 -18 73 1 66 20 -8 19 15 -1 44 -10 15 -25 22 -49 22 -24 0
-39 -7 -49 -22z"/>
<path d="M1836 2376 c3 -13 17 -45 30 -72 13 -26 24 -59 24 -72 0 -14 7 -34
16 -43 9 -10 18 -29 19 -43 2 -13 7 -35 11 -48 10 -30 5 -61 -10 -70 -16 -9
-15 -163 1 -179 8 -8 23 -9 50 -2 33 7 38 13 41 40 4 38 19 52 62 56 24 3 36
11 42 28 5 13 14 27 21 31 8 5 4 8 -9 8 -12 0 -27 -7 -34 -15 -7 -8 -21 -15
-31 -15 -10 0 -21 -4 -24 -10 -11 -18 -24 -11 -40 21 -22 42 -13 59 29 59 19
0 46 5 59 11 25 11 25 11 5 31 -23 23 -9 49 23 41 16 -4 20 -12 16 -29 -5 -27
5 -31 23 -9 9 11 9 21 -4 46 -19 39 -12 103 10 95 8 -3 14 -1 14 4 0 6 8 10
18 10 10 0 23 5 29 11 8 8 17 8 32 0 23 -13 28 -58 10 -93 -13 -25 -4 -36 19
-21 11 7 17 24 17 49 0 33 3 39 23 42 36 5 65 -26 57 -63 -5 -27 -12 -129 -16
-268 -2 -37 3 -52 19 -68 22 -20 23 -52 7 -155 -8 -47 9 -54 117 -51 72 1 99
-2 113 -13 10 -8 28 -13 39 -12 12 2 18 1 14 -3 -13 -13 11 -44 49 -62 27 -12
38 -14 41 -5 5 15 56 16 84 1 27 -14 47 3 28 25 -7 9 -10 22 -7 30 4 10 -3 17
-23 21 -16 3 -34 13 -41 21 -7 9 -30 14 -60 14 -27 0 -49 5 -49 10 0 6 5 10
11 10 5 0 7 5 4 10 -4 6 -3 10 2 9 12 -4 63 23 63 33 0 4 4 8 10 8 5 0 9 -3 8
-7 -2 -5 4 -18 13 -30 21 -30 62 -39 90 -20 32 23 74 1 64 -33 -4 -14 10 -16
102 -14 109 1 200 -15 215 -40 24 -36 -12 -56 -132 -76 -41 -7 -79 -19 -85
-27 -9 -11 -17 -11 -57 2 -25 9 -61 15 -80 13 l-33 -3 38 -22 c20 -12 37 -26
37 -31 0 -23 -30 -43 -80 -52 -120 -21 -153 -23 -380 -26 -246 -3 -295 -7
-304 -29 -6 -16 7 -19 179 -41 137 -17 277 -46 334 -70 24 -10 37 -11 41 -4 9
15 27 -8 32 -40 2 -18 12 -27 35 -34 18 -5 35 -16 38 -25 3 -9 15 -21 27 -26
58 -25 15 -112 -78 -162 -98 -52 -219 -92 -361 -117 -191 -35 -272 -41 -593
-41 -287 1 -340 3 -455 23 -167 28 -277 58 -318 88 -18 13 -42 28 -54 33 -35
16 -73 74 -73 113 0 25 8 43 31 66 17 18 27 32 21 32 -6 0 -18 7 -26 16 -11
11 -16 12 -16 3 0 -8 -3 -9 -9 -3 -4 5 -6 25 -4 45 5 35 6 36 111 77 59 23
114 44 123 47 12 4 25 -8 48 -41 31 -48 43 -50 16 -4 -8 14 -14 28 -15 31 0 3
28 9 61 13 91 9 93 12 85 136 -9 151 -24 191 -18 49 3 -84 1 -118 -7 -124 -8
-4 -14 1 -18 14 -6 25 -23 18 -23 -10 0 -22 -28 -26 -52 -6 -12 10 -14 24 -8
77 4 37 3 73 -2 84 -6 10 -8 30 -6 45 3 23 0 27 -20 29 -22 2 -23 -1 -17 -26
3 -15 11 -28 16 -30 15 -6 10 -22 -6 -22 -19 0 -19 -17 0 -50 8 -14 14 -39 15
-57 0 -64 -13 -75 -146 -127 -120 -46 -126 -47 -139 -29 -10 14 -13 14 -13 3
2 -35 -3 -51 -14 -48 -7 3 -21 -13 -31 -34 -15 -29 -22 -36 -32 -28 -11 9 -8
16 11 37 14 15 22 33 20 40 -3 7 1 13 9 13 20 0 19 39 0 46 -8 4 -13 10 -10
14 3 4 -10 11 -28 14 -17 3 -44 12 -59 20 l-27 14 -15 -67 c-23 -103 -95 -226
-151 -261 -46 -28 -57 -26 -53 13 3 30 0 33 -37 42 -40 10 -60 39 -33 48 7 2
1 2 -15 0 -30 -5 -34 7 -17 51 5 14 6 25 2 25 -34 -5 -72 3 -72 16 0 8 -6 15
-12 15 -7 1 -26 11 -41 24 l-28 23 35 -1 c18 -1 32 -4 29 -8 -9 -16 8 -28 22
-15 10 9 10 15 2 26 -17 20 22 6 102 -36 35 -18 65 -32 68 -30 6 7 -19 23
-105 67 -46 24 -85 47 -88 52 -3 4 -14 8 -25 8 -11 0 -18 4 -15 9 6 9 -86 51
-110 51 -8 0 -14 -5 -14 -11 0 -6 -7 -9 -15 -6 -8 4 -17 2 -20 -3 -3 -5 -13
-7 -23 -4 -13 5 -14 4 -3 -4 7 -5 23 -7 35 -5 17 4 18 3 6 -6 -8 -6 -10 -11
-5 -11 6 0 4 -4 -3 -8 -9 -6 -6 -12 12 -22 25 -13 31 -46 11 -54 -6 -2 -33 0
-60 4 -28 4 -51 7 -51 6 -1 0 2 -11 7 -23 9 -24 59 -34 59 -11 0 6 3 9 6 6 3
-3 0 -15 -7 -26 -20 -31 -4 -68 40 -89 39 -20 44 -43 7 -40 -10 1 -21 -4 -23
-10 -3 -7 3 -13 12 -13 9 0 13 -4 10 -10 -6 -10 29 -22 74 -25 38 -3 41 -4 41
-15 0 -16 -44 -29 -112 -34 l-61 -4 29 18 28 19 -96 95 c-53 53 -99 96 -102
96 -3 0 -5 -81 -5 -180 -1 -149 2 -180 13 -180 8 0 17 -8 20 -17 3 -10 22 -35
41 -55 51 -54 56 -73 34 -143 -10 -33 -19 -61 -19 -62 0 -2 8 -3 19 -3 41 0
81 -22 81 -44 0 -38 -28 -53 -102 -54 -37 0 -72 -3 -78 -7 -5 -3 -10 -40 -10
-81 0 -83 3 -86 63 -55 54 28 68 41 62 61 -6 20 41 71 60 64 8 -3 15 6 19 23
4 15 14 38 22 50 13 21 20 22 154 22 77 0 148 4 157 9 27 14 288 35 329 27 32
-5 36 -4 30 10 -5 15 -2 16 21 10 64 -16 121 -17 151 -1 32 16 105 21 161 10
43 -9 29 -23 -17 -17 -24 3 -50 0 -67 -9 -27 -15 -26 -15 42 -21 38 -3 100
-16 138 -29 57 -19 71 -27 73 -46 l4 -23 -122 3 c-84 2 -123 -1 -128 -9 -13
-21 -58 -26 -76 -8 -9 9 -16 21 -16 26 0 16 -49 9 -67 -10 -24 -26 -92 -53
-115 -45 -10 3 -18 14 -18 26 0 30 -39 57 -83 58 -38 0 -39 0 -31 -33 15 -67
13 -72 -38 -75 -32 -2 -48 -8 -48 -16 0 -20 -64 -65 -102 -73 -18 -3 -44 -11
-58 -18 -16 -8 -33 -10 -48 -4 -30 11 -45 2 -38 -23 6 -26 -9 -42 -56 -57 -19
-6 -44 -21 -54 -32 -15 -17 -27 -19 -69 -15 -28 3 -58 8 -66 11 -25 9 -46 -22
-31 -46 16 -25 16 -25 -13 -24 -18 0 -36 13 -61 45 -61 78 -64 76 -64 -50 l0
-110 263 0 c290 0 287 0 436 75 71 35 85 51 76 88 -9 40 7 49 81 48 38 0 82 3
98 7 16 4 60 4 98 0 90 -11 140 3 201 54 50 42 95 59 199 78 92 17 120 9 148
-45 l23 -44 -23 -55 c-25 -63 -69 -135 -105 -174 l-25 -27 621 -3 c342 -1 625
0 628 4 14 13 -36 35 -77 32 -34 -1 -46 3 -58 20 -11 16 -24 21 -47 19 -28 -2
-32 1 -32 24 -1 15 -13 43 -28 62 -31 41 -33 60 -12 110 20 49 19 80 -5 95
-29 18 -27 72 4 103 13 13 35 32 50 42 20 14 26 26 26 53 0 102 85 127 277 80
124 -31 186 -56 398 -160 94 -47 200 -98 236 -115 81 -38 92 -50 95 -109 2
-26 8 -48 14 -50 7 -3 4 -10 -7 -18 -16 -12 -15 -13 15 -14 l32 0 0 333 0 333
-26 35 c-39 50 -73 132 -99 234 l-23 90 -108 13 c-60 7 -125 12 -144 11 -19
-2 -80 -3 -135 -3 -61 -1 -104 -5 -110 -12 -16 -18 -72 -25 -78 -10 -14 36
272 55 448 31 60 -9 112 -12 117 -7 4 4 12 55 16 112 12 136 53 324 103 464
l39 111 0 243 0 242 -885 0 -885 0 6 -24z m811 -62 c3 -8 0 -26 -8 -40 -11
-22 -10 -26 9 -40 26 -18 29 -77 7 -139 -18 -49 -19 -97 -3 -113 19 -19 26
-14 21 13 -4 19 0 25 20 30 14 4 37 19 52 35 23 24 28 38 29 87 1 55 3 58 27
61 36 4 55 -21 40 -54 -15 -33 -8 -42 29 -36 29 4 30 3 30 -31 0 -19 -6 -40
-13 -46 -8 -6 -12 -23 -9 -42 3 -23 0 -36 -12 -44 -9 -7 -14 -19 -10 -29 8
-21 21 -20 32 0 7 12 17 15 36 10 23 -6 27 -11 24 -39 -2 -27 -8 -33 -30 -35
-16 -2 -28 -6 -28 -10 0 -13 15 -28 33 -35 10 -4 15 -11 12 -17 -3 -5 1 -10
10 -10 9 0 13 -4 10 -10 -3 -5 -26 -10 -49 -10 -35 0 -45 -4 -49 -20 -3 -11
-11 -20 -19 -20 -9 0 -14 19 -15 67 -1 41 -7 69 -15 74 -14 9 -38 -9 -42 -32
-5 -35 -22 -50 -49 -44 -15 4 -27 14 -27 22 0 10 -6 13 -17 8 -49 -18 -113
-26 -132 -16 -11 6 -30 11 -42 11 -12 0 -30 7 -39 15 -15 14 -17 34 -12 177 4
142 3 162 -12 170 -23 13 -21 55 4 63 11 3 24 4 29 1 16 -10 39 5 51 33 10 26
31 35 113 50 4 0 10 -6 14 -15z m-570 -65 c-3 -13 -2 -29 4 -35 11 -14 -4 -54
-21 -54 -5 0 -10 -15 -12 -32 -2 -23 -9 -34 -22 -36 -18 -4 -19 1 -12 89 3 52
9 104 12 116 l6 22 25 -24 c19 -17 24 -29 20 -46z m1080 -355 c3 -8 1 -20 -6
-27 -14 -14 -47 15 -37 32 10 16 36 13 43 -5z m218 -22 c6 -4 11 -15 11 -24 2
-15 -7 -18 -45 -18 -51 0 -74 10 -63 27 11 17 80 28 97 15z m-166 -51 c8 -5
11 -16 8 -24 -4 -11 -25 -16 -74 -19 -84 -4 -113 0 -113 18 0 16 24 23 100 27
30 2 57 4 60 5 3 1 11 -2 19 -7z m-709 -41 c0 -5 -5 -10 -11 -10 -5 0 -7 5 -4
10 3 6 8 10 11 10 2 0 4 -4 4 -10z m190 -41 c0 -5 -7 -9 -15 -9 -8 0 -15 7
-15 15 0 9 6 12 15 9 8 -4 15 -10 15 -15z m557 -54 c9 -25 -4 -30 -73 -30 -61
0 -83 10 -84 38 0 4 34 7 75 7 59 0 77 -3 82 -15z m-3023 -339 c-6 -15 -24
-23 -24 -11 0 8 24 34 28 30 1 -1 0 -10 -4 -19z m36 20 c0 -3 -4 -8 -10 -11
-5 -3 -10 -1 -10 4 0 6 5 11 10 11 6 0 10 -2 10 -4z m48 -44 c2 -7 -3 -12 -12
-12 -9 0 -16 7 -16 16 0 17 22 14 28 -4z m47 -22 c3 -5 1 -10 -4 -10 -6 0 -11
5 -11 10 0 6 2 10 4 10 3 0 8 -4 11 -10z m520 -50 c3 -5 2 -10 -4 -10 -5 0
-13 5 -16 10 -3 6 -2 10 4 10 5 0 13 -4 16 -10z m-65 -70 c0 -5 -2 -10 -4 -10
-3 0 -8 5 -11 10 -3 6 -1 10 4 10 6 0 11 -4 11 -10z m4 -54 c-30 -26 -50 -34
-38 -15 7 12 6 12 -39 -10 -31 -16 -46 -9 -28 13 8 9 26 13 51 11 28 -3 43 2
56 16 9 10 19 17 22 15 2 -3 -9 -16 -24 -30z m2280 -36 c14 -5 26 -14 26 -20
0 -17 -26 -11 -45 10 -20 23 -17 24 19 10z m-3064 -106 c0 -8 -5 -12 -10 -9
-6 4 -8 11 -5 16 9 14 15 11 15 -7z m951 -229 c4 -39 5 -72 3 -73 -1 -2 -14
19 -28 47 -35 69 -34 106 4 99 11 -2 17 -21 21 -73z m1689 -15 c-6 -11 -13
-20 -16 -20 -2 0 0 9 6 20 6 11 13 20 16 20 2 0 0 -9 -6 -20z m-1645 -87 c19
-9 35 -20 35 -24 0 -13 -28 -17 -40 -6 -10 9 -14 9 -17 0 -6 -17 -34 -16 -58
3 -20 15 -19 16 5 12 14 -2 25 2 26 10 3 27 2 27 49 5z m610 -114 c4 -6 5 -13
2 -16 -8 -7 -47 7 -47 18 0 13 37 11 45 -2z m142 -45 c57 -6 73 -18 51 -40
-11 -11 -35 -12 -132 -5 -127 10 -152 19 -115 45 23 15 42 15 196 0z m326 -55
c-17 -17 -60 -20 -71 -6 -14 16 -1 32 33 39 21 5 50 -21 38 -33z m-713 -19
c30 -19 -3 -44 -78 -60 -59 -12 -78 -22 -111 -54 l-39 -38 -98 12 c-55 7 -125
15 -156 17 -54 4 -58 3 -58 -16 0 -28 -21 -26 -50 4 -13 14 -31 25 -40 25 -40
0 -56 56 -17 64 12 3 80 10 150 17 90 8 130 16 134 25 4 11 42 14 177 14 94 0
178 -5 186 -10z m245 -31 c4 -6 5 -12 2 -15 -7 -7 -37 7 -37 17 0 13 27 11 35
-2z m233 -57 c5 -15 -23 -26 -45 -17 -17 6 -17 7 2 21 21 16 37 14 43 -4z
m242 -12 c-9 -6 -9 -9 0 -15 7 -4 16 -2 21 6 4 7 11 11 14 8 3 -4 -9 -25 -27
-47 -18 -23 -48 -62 -66 -87 -41 -56 -80 -84 -92 -65 -4 7 -15 10 -24 7 -9 -4
-16 -2 -16 3 0 6 -17 10 -37 10 -21 0 -51 7 -67 15 -15 8 -41 15 -57 15 -19 0
-34 8 -44 24 -9 13 -27 27 -40 30 -16 4 -22 11 -18 24 4 16 11 17 61 11 31 -5
74 -12 95 -18 20 -5 45 -7 55 -6 9 2 34 7 54 10 41 6 56 31 39 63 -10 18 -5
19 76 20 47 0 80 -4 73 -8z"/>
<path d="M658 2307 c-3 -19 -2 -25 4 -19 6 6 8 18 6 28 -3 14 -5 12 -10 -9z"/>
<path d="M565 2220 c-21 -16 -43 -30 -49 -30 -6 0 -18 -8 -27 -18 -12 -14 -14
-37 -11 -107 4 -87 2 -95 -47 -241 -28 -82 -54 -172 -57 -198 l-7 -48 29 5
c16 4 50 9 75 13 l46 6 28 98 c23 81 32 100 55 114 16 9 35 16 44 16 20 0 20
-1 -6 57 -21 43 -23 63 -23 206 0 86 -3 157 -6 157 -3 0 -23 -13 -44 -30z"/>
<path d="M1004 2197 c-17 -20 7 -196 28 -208 9 -5 19 -5 22 -1 9 14 0 133 -13
180 -12 44 -19 49 -37 29z"/>
<path d="M0 2185 c0 -8 4 -15 8 -15 5 0 9 7 9 15 0 8 -4 15 -9 15 -4 0 -8 -7
-8 -15z"/>
<path d="M2215 2120 c-4 -6 6 -24 21 -40 29 -30 54 -39 54 -20 0 6 -5 9 -12 8
-6 -2 -21 12 -34 30 -14 20 -25 28 -29 22z"/>
<path d="M381 2091 c-12 -16 -21 -40 -22 -53 0 -22 -1 -22 -9 -3 -7 17 -9 17
-9 3 -1 -17 -21 -26 -21 -10 0 5 -8 9 -17 9 -32 0 -60 -45 -30 -49 35 -4 43
-2 54 12 11 13 12 13 13 -2 0 -28 33 -21 65 12 16 17 35 30 42 30 20 0 16 33
-7 58 -27 29 -35 28 -59 -7z"/>
<path d="M1614 2088 c3 -13 6 -35 6 -49 0 -22 6 -28 33 -34 50 -11 79 -13 114
-8 46 7 50 30 8 47 -25 11 -32 19 -29 33 5 16 -1 19 -40 19 -46 0 -50 -4 -46
-40 1 -11 -3 -17 -12 -14 -7 3 -14 19 -16 36 -2 18 -8 32 -14 32 -6 0 -8 -10
-4 -22z m96 -27 c0 -6 -4 -13 -10 -16 -5 -3 -10 1 -10 9 0 9 5 16 10 16 6 0
10 -4 10 -9z"/>
<path d="M63 2009 c-7 -30 -13 -63 -13 -74 0 -19 1 -19 22 2 19 19 20 27 12
74 l-9 53 -12 -55z"/>
<path d="M1658 1972 c-26 -5 -22 -47 6 -74 14 -13 30 -36 35 -51 11 -27 11
-27 37 -10 51 33 74 24 74 -29 0 -15 8 -35 19 -45 10 -10 24 -29 32 -43 l13
-25 9 35 c16 61 19 115 9 150 -8 30 -10 32 -16 15 -4 -11 -11 -27 -15 -35 -4
-8 -4 -27 -1 -41 8 -27 -3 -59 -16 -47 -3 4 -7 46 -8 93 -1 63 3 88 13 94 10
7 6 11 -16 15 -29 7 -141 5 -175 -2z"/>
<path d="M2225 1950 c3 -5 8 -10 11 -10 2 0 4 5 4 10 0 6 -5 10 -11 10 -5 0
-7 -4 -4 -10z"/>
<path d="M180 1920 c-13 -8 -13 -11 -1 -19 9 -5 11 -18 8 -33 -3 -13 -1 -30 4
-38 9 -12 10 -11 5 5 -5 17 -3 16 14 -5 l20 -25 -14 40 c-8 25 -10 48 -5 63 9
24 -4 29 -31 12z"/>
<path d="M246 1888 c13 -44 21 -49 20 -14 -1 23 -6 36 -14 36 -9 0 -11 -7 -6
-22z"/>
<path d="M2304 1864 c-10 -14 -18 -47 -18 -74 -1 -44 -18 -82 -31 -69 -5 6
-13 45 -14 72 -1 9 -5 17 -10 17 -11 0 -35 -154 -27 -175 3 -10 15 -15 28 -13
18 2 23 -2 24 -20 1 -13 8 -31 17 -39 13 -13 19 -14 31 -4 9 8 13 17 10 22 -2
5 9 23 26 41 26 27 30 38 25 63 -3 16 -10 54 -15 83 -5 29 -12 56 -15 61 -3 5
-1 12 5 16 15 9 12 25 -6 25 -8 0 -12 5 -9 10 14 23 -6 8 -21 -16z"/>
<path d="M807 1844 c4 -12 13 -14 37 -9 17 3 41 8 54 9 50 7 32 16 -31 16 -57
0 -65 -2 -60 -16z"/>
<path d="M144 1829 c-5 -8 -14 -24 -21 -36 -11 -21 -10 -23 15 -23 l27 -1 -35
-30 c-30 -26 -33 -31 -19 -39 9 -5 25 -37 35 -70 18 -56 21 -60 50 -60 17 0
46 -3 64 -7 l33 -6 -6 35 c-7 45 -49 135 -85 181 -15 19 -32 43 -38 53 -9 15
-12 16 -20 3z"/>
<path d="M266 1795 c14 -58 24 -83 18 -40 -3 22 -10 47 -15 55 -6 10 -7 5 -3
-15z"/>
<path d="M1053 1765 c0 -33 2 -45 4 -27 2 18 2 45 0 60 -2 15 -4 0 -4 -33z"/>
<path d="M236 1747 c3 -10 9 -15 12 -12 3 3 0 11 -7 18 -10 9 -11 8 -5 -6z"/>
<path d="M730 1739 c0 -7 12 -24 28 -37 16 -14 20 -21 10 -18 -10 3 -20 1 -24
-5 -3 -6 -13 -8 -21 -4 -13 4 -14 3 -4 -9 20 -24 3 -36 -50 -36 -27 0 -49 -4
-49 -10 0 -6 43 -10 110 -10 104 0 110 1 110 20 0 12 -11 31 -25 43 -14 12
-39 35 -55 51 -17 16 -30 22 -30 15z"/>
<path d="M1990 1731 c0 -6 5 -13 10 -16 6 -3 10 1 10 9 0 9 -4 16 -10 16 -5 0
-10 -4 -10 -9z"/>
<path d="M933 1684 c-32 -36 -29 -54 7 -54 28 0 30 2 30 40 0 47 -7 49 -37 14z"/>
<path d="M1198 1677 c3 -28 8 -33 34 -35 18 -2 27 1 23 8 -4 6 -14 9 -23 8
-12 -2 -18 5 -20 25 -2 15 -7 27 -11 27 -4 0 -5 -15 -3 -33z"/>
<path d="M1 1678 c0 -13 3 -17 6 -10 2 6 14 12 26 13 21 0 21 1 2 9 -31 13
-35 12 -34 -12z"/>
<path d="M290 1673 c13 -18 26 -30 29 -28 3 3 -8 18 -23 33 l-29 27 23 -32z"/>
<path d="M1542 1678 c6 -18 28 -21 28 -4 0 9 -7 16 -16 16 -9 0 -14 -5 -12
-12z"/>
<path d="M1725 1658 c-10 -25 -2 -53 15 -53 20 0 24 26 6 50 -13 18 -15 18
-21 3z"/>
<path d="M1974 1628 c-4 -13 -9 -25 -9 -28 -1 -3 -5 -13 -10 -24 -5 -11 -3
-26 4 -38 10 -16 8 -24 -14 -50 -14 -17 -24 -32 -22 -34 2 -2 54 -7 116 -10
107 -7 113 -6 127 15 8 11 22 21 30 21 8 0 14 5 14 10 0 6 -11 10 -25 10 -16
0 -25 -6 -25 -15 0 -8 -8 -15 -19 -15 -10 0 -24 7 -31 15 -7 8 -28 15 -46 15
-19 0 -34 5 -34 10 0 6 5 10 10 10 18 0 11 18 -10 25 -11 3 -20 13 -20 21 0 8
-7 14 -15 14 -8 0 -15 6 -15 13 0 22 12 28 28 15 11 -10 13 -8 10 12 -4 33
-34 38 -44 8z"/>
<path d="M47 1605 c-9 -20 -24 -38 -32 -41 -12 -5 -15 -24 -15 -84 l0 -77 37
-6 c44 -8 62 1 39 19 -24 17 -14 43 25 71 26 17 36 19 55 11 18 -8 35 -8 66 3
l43 14 -60 5 c-47 4 -62 9 -70 25 -5 11 -17 19 -26 17 -11 -2 -18 6 -21 22 -3
15 -1 23 4 20 6 -4 8 2 6 12 -6 33 -33 27 -51 -11z"/>
<path d="M301 1605 c6 -21 17 -45 25 -52 22 -22 5 47 -17 71 -18 18 -18 18 -8
-19z"/>
<path d="M590 1619 c0 -5 5 -7 10 -4 6 3 10 8 10 11 0 2 -4 4 -10 4 -5 0 -10
-5 -10 -11z"/>
<path d="M1099 1563 c-2 -228 -2 -233 30 -233 20 0 63 29 43 30 -10 0 -13 28
-11 123 l1 122 -31 3 c-31 3 -31 3 -32 -45z"/>
<path d="M1321 1584 c0 -11 3 -14 6 -6 3 7 2 16 -1 19 -3 4 -6 -2 -5 -13z"/>
<path d="M1820 1591 c0 -5 7 -14 15 -21 11 -9 14 -22 10 -42 -5 -20 -3 -28 7
-28 22 0 38 22 38 50 0 14 -5 31 -12 38 -14 14 -58 16 -58 3z"/>
<path d="M2125 1586 c-30 -7 -45 -15 -37 -20 7 -4 20 -5 31 -1 10 3 31 -1 47
-10 16 -8 38 -15 48 -15 18 0 18 1 3 18 -10 10 -17 24 -17 30 0 14 -8 14 -75
-2z"/>
<path d="M2322 1523 c7 -18 18 -33 25 -33 7 0 13 -4 13 -10 0 -5 -6 -7 -14 -4
-16 6 -51 -55 -39 -67 18 -16 150 -29 297 -29 153 0 157 1 151 20 -6 18 -2 20
36 20 50 0 42 14 -13 24 -29 5 -39 3 -46 -11 -9 -15 -12 -15 -26 -3 -9 7 -38
17 -64 21 -26 5 -84 17 -129 27 -46 10 -83 15 -83 10 0 -4 -7 -8 -15 -8 -8 0
-15 4 -15 9 0 5 -14 14 -31 20 -18 6 -38 19 -45 28 -11 15 -12 13 -2 -14z"/>
<path d="M380 1451 c0 -19 49 -51 78 -51 10 0 30 8 43 18 13 10 33 22 44 26
27 11 14 14 -82 19 -72 3 -83 1 -83 -12z"/>
<path d="M960 1456 c0 -9 5 -16 10 -16 6 0 10 4 10 9 0 6 -4 13 -10 16 -5 3
-10 -1 -10 -9z"/>
<path d="M584 1451 c17 -6 14 -10 -20 -32 -36 -22 -37 -24 -15 -27 47 -7 71 6
71 38 0 26 -3 30 -27 29 -23 0 -25 -2 -9 -8z"/>
<path d="M670 1400 c6 -11 13 -20 16 -20 2 0 0 9 -6 20 -6 11 -13 20 -16 20
-2 0 0 -9 6 -20z"/>
<path d="M1058 1397 c-3 -15 -2 -30 3 -32 12 -8 16 8 9 35 l-6 25 -6 -28z"/>
<path d="M1820 1400 c0 -5 4 -10 9 -10 5 0 18 -3 28 -7 16 -6 16 -5 4 10 -15
19 -41 23 -41 7z"/>
<path d="M1949 1366 c14 -17 58 -29 73 -20 17 11 -21 34 -55 34 -24 0 -27 -3
-18 -14z"/>
<path d="M1679 1349 c-6 -12 -9 -29 -6 -39 5 -21 12 -20 -168 -50 -66 -11
-144 -25 -173 -32 -53 -11 -53 -12 -32 -28 21 -16 28 -16 109 1 47 9 120 20
161 24 41 3 80 10 86 16 8 6 14 4 18 -6 3 -9 11 -13 17 -9 8 4 7 9 -2 15 -7 4
-10 11 -6 15 3 4 14 1 24 -7 11 -9 14 -10 9 -1 -7 12 3 16 36 13 9 -1 19 3 23
9 3 5 11 10 16 10 6 0 7 -5 3 -12 -4 -7 -3 -8 5 -4 21 13 1 26 -34 21 -19 -2
-37 0 -40 5 -3 5 16 11 42 15 90 11 118 18 103 23 -8 3 -17 9 -20 13 -3 5 -22
3 -42 -3 -31 -9 -38 -8 -57 11 -27 27 -57 27 -72 0z"/>
<path d="M595 1340 c-7 -12 2 -12 30 0 19 8 19 9 -2 9 -12 1 -25 -3 -28 -9z"/>
<path d="M605 1328 c-38 -5 -85 -12 -104 -14 l-33 -5 68 -41 c59 -34 143 -78
150 -78 3 0 35 82 44 113 6 19 5 27 -3 27 -7 0 -21 2 -32 4 -11 2 -51 -1 -90
-6z"/>
<path d="M2016 1252 c-3 -5 -30 -9 -61 -9 -61 1 -63 0 -68 -32 -2 -12 -10 -27
-18 -32 -8 -5 -9 -9 -2 -9 6 0 25 14 42 31 19 18 31 25 31 17 0 -29 -105 -102
-118 -82 -4 5 -22 11 -41 12 -19 2 -41 8 -50 15 -12 10 -14 9 -8 -5 4 -12 2
-15 -9 -11 -19 7 -18 -11 3 -28 9 -8 14 -9 10 -2 -5 7 0 9 13 6 19 -5 19 -13
-3 -40 -11 -15 -37 7 -37 31 0 20 -10 20 -35 2 -10 -7 -16 -20 -12 -28 3 -9 1
-20 -4 -25 -5 -5 -5 -22 0 -41 6 -20 6 -32 0 -32 -5 0 -9 -5 -9 -11 0 -7 9 -9
24 -5 15 4 28 0 36 -9 7 -8 20 -15 28 -15 13 0 13 -2 -2 -13 -26 -19 -10 -43
40 -57 32 -9 85 -11 183 -7 199 10 315 35 377 82 49 37 46 71 -8 116 -24 19
-50 39 -58 43 -9 4 -8 1 3 -7 9 -8 17 -19 17 -25 0 -6 9 -16 20 -22 24 -13 26
-38 4 -68 -19 -27 -52 -45 -122 -66 -53 -15 -53 -15 -50 7 3 19 8 22 40 19 61
-6 157 58 107 71 -13 4 -25 -4 -40 -24 -28 -39 -38 -36 -32 10 5 35 3 39 -22
45 -18 5 -25 12 -21 22 3 8 -1 17 -9 20 -8 4 -15 12 -15 20 0 8 -4 14 -9 14
-5 0 -11 12 -13 28 -2 22 -11 29 -45 40 -52 17 -57 36 -8 30 22 -2 34 0 32 6
-2 6 -17 11 -33 10 -16 0 -32 4 -35 9 -4 5 -9 5 -13 -1z m-6 -46 c0 -2 -7 -7
-16 -10 -8 -3 -12 -2 -9 4 6 10 25 14 25 6z m100 -76 c0 -5 -2 -10 -4 -10 -3
0 -8 5 -11 10 -3 6 -1 10 4 10 6 0 11 -4 11 -10z m-416 -65 c-7 -16 -24 -21
-24 -6 0 8 7 13 27 20 1 1 0 -6 -3 -14z m93 -67 c-3 -8 -6 -5 -6 6 -1 11 2 17
5 13 3 -3 4 -12 1 -19z m99 -23 c-3 -8 -4 -15 -3 -16 1 0 25 -3 52 -6 32 -3
60 -14 78 -29 l29 -24 -26 0 c-14 0 -30 8 -35 18 -11 21 -88 23 -101 3 -6 -10
-12 -10 -29 -2 -27 15 -27 17 7 46 32 29 36 30 28 10z m120 -12 c-10 -10 -19
5 -10 18 6 11 8 11 12 0 2 -7 1 -15 -2 -18z m44 13 c0 -3 -4 -8 -10 -11 -5 -3
-10 -1 -10 4 0 6 5 11 10 11 6 0 10 -2 10 -4z m35 -6 c3 -5 1 -10 -4 -10 -6 0
-11 5 -11 10 0 6 2 10 4 10 3 0 8 -4 11 -10z"/>
<path d="M1780 1239 c0 -4 6 -9 13 -12 8 -3 14 0 14 7 0 7 -6 13 -14 13 -7 0
-13 -4 -13 -8z"/>
<path d="M478 1233 c6 -2 10 -9 6 -14 -3 -5 7 -9 23 -9 27 1 27 1 9 15 -11 8
-27 15 -35 14 -11 0 -12 -2 -3 -6z"/>
<path d="M1148 1218 c4 -18 2 -20 -18 -15 -16 4 -20 3 -12 -5 16 -16 51 0 49
22 -1 11 -7 20 -13 20 -7 0 -10 -8 -6 -22z"/>
<path d="M1220 1230 c0 -5 4 -10 9 -10 6 0 13 5 16 10 3 6 -1 10 -9 10 -9 0
-16 -4 -16 -10z"/>
<path d="M615 1196 c37 -24 55 -31 55 -22 0 7 -45 33 -70 40 -18 5 -13 0 15
-18z"/>
<path d="M76 1203 c-3 -3 -3 -9 -1 -13 5 -9 55 -1 55 9 0 7 -47 11 -54 4z"/>
<path d="M1645 1200 c-3 -5 -2 -10 4 -10 5 0 13 5 16 10 3 6 2 10 -4 10 -5 0
-13 -4 -16 -10z"/>
<path d="M1773 1199 c-18 -18 7 -40 30 -27 15 7 16 12 6 24 -14 17 -21 18 -36
3z"/>
<path d="M535 1190 c3 -5 11 -10 16 -10 6 0 7 5 4 10 -3 6 -11 10 -16 10 -6 0
-7 -4 -4 -10z"/>
<path d="M1686 1164 c-23 -23 -20 -30 4 -9 11 10 20 20 20 22 0 7 -9 2 -24
-13z"/>
<path d="M2178 1138 c5 -5 16 -8 23 -6 8 3 3 7 -10 11 -17 4 -21 3 -13 -5z"/>
<path d="M1633 1120 c-3 -11 -11 -20 -17 -20 -6 0 -12 -9 -12 -20 0 -30 8 -24
33 20 12 22 17 40 11 40 -5 0 -12 -9 -15 -20z"/>
<path d="M605 1120 c-3 -5 -1 -10 4 -10 6 0 11 5 11 10 0 6 -2 10 -4 10 -3 0
-8 -4 -11 -10z"/>
<path d="M1578 1123 c7 -3 16 -2 19 1 4 3 -2 6 -13 5 -11 0 -14 -3 -6 -6z"/>
<path d="M1528 1102 c-19 -11 -28 -25 -28 -42 0 -31 6 -39 50 -70 l35 -24 -27
32 c-40 48 -44 70 -17 98 26 28 24 30 -13 6z"/>
<path d="M1446 1084 c-10 -25 1 -29 14 -5 6 12 7 21 1 21 -5 0 -12 -7 -15 -16z"/>
<path d="M976 1052 c-4 -6 -4 -22 -1 -35 5 -18 13 -24 31 -24 13 0 24 4 24 10
0 6 -3 7 -7 3 -4 -4 -15 8 -24 25 -9 19 -19 27 -23 21z"/>
<path d="M1096 929 c19 -21 73 -53 79 -47 9 8 -34 46 -64 56 l-34 12 19 -21z"/>
<path d="M1630 939 c0 -5 9 -9 20 -9 11 0 20 2 20 4 0 2 -9 6 -20 9 -11 3 -20
1 -20 -4z"/>
<path d="M666 504 c-11 -28 -7 -34 24 -34 25 0 30 4 30 25 0 20 -5 25 -24 25
-13 0 -27 -7 -30 -16z"/>
<path d="M410 451 c0 -26 15 -41 39 -41 47 0 54 15 16 33 -40 19 -55 21 -55 8z"/>
<path d="M220 365 c-10 -12 -9 -16 3 -21 20 -7 37 3 37 22 0 18 -24 18 -40 -1z"/>
<path d="M2648 173 c-21 -2 -38 -8 -38 -14 0 -10 6 -11 75 -10 65 2 120 -29
112 -62 -4 -13 2 -31 13 -45 28 -34 75 -22 98 24 21 45 10 56 -84 89 -66 24
-94 26 -176 18z"/>
<path d="M3335 143 c-11 -2 -75 -18 -142 -34 -67 -16 -138 -29 -158 -29 -46 0
-95 -21 -128 -54 l-26 -26 291 2 292 3 9 45 c5 25 13 49 18 55 12 12 12 28 -1
20 -5 -3 -18 -2 -27 3 -23 12 -102 21 -128 15z"/>
</g>
</svg>
